<?xml version="1.0" encoding="utf-8"?>
<!-- Generator: Adobe Illustrator 26.5.0, SVG Export Plug-In . SVG Version: 6.00 Build 0)  -->
<svg version="1.1" id="Layer_1" xmlns="http://www.w3.org/2000/svg" xmlns:xlink="http://www.w3.org/1999/xlink" x="0px" y="0px"
	 viewBox="0 0 220.94 221.08" style="enable-background:new 0 0 220.94 221.08;" xml:space="preserve">
<style type="text/css">
	.st0{fill:#414042;}
</style>
<g>
	<path class="st0" d="M217.8,205.48l-65.51-65.52c27.27-33.45,25.32-82.94-5.84-114.1c-16.1-16.1-37.51-24.97-60.28-24.97
		c-22.77,0-44.18,8.87-60.28,24.97c-33.24,33.24-33.24,87.33,0,120.57c16.1,16.1,37.51,24.97,60.28,24.97
		c19.85,0,38.65-6.74,53.82-19.13l65.51,65.52c1.7,1.7,3.93,2.55,6.15,2.55s4.45-0.85,6.15-2.55
		C221.2,214.38,221.2,208.87,217.8,205.48z M38.18,134.12c-26.46-26.45-26.46-69.5,0-95.96C51,25.35,68.04,18.29,86.16,18.29
		c18.12,0,35.16,7.06,47.98,19.87c26.46,26.46,26.46,69.51,0,95.96C121.32,146.94,104.29,154,86.16,154
		C68.04,154,51,146.94,38.18,134.12z"/>
</g>
</svg>
