<?xml version="1.0" standalone="no"?>
<!DOCTYPE svg PUBLIC "-//W3C//DTD SVG 20010904//EN"
 "http://www.w3.org/TR/2001/REC-SVG-20010904/DTD/svg10.dtd">
<svg version="1.0" xmlns="http://www.w3.org/2000/svg"
 width="452.000000pt" height="452.000000pt" viewBox="0 0 452.000000 452.000000"
 preserveAspectRatio="xMidYMid meet">
<metadata>
Created by potrace 1.11, written by Peter Selinger 2001-2013
</metadata>
<g transform="translate(0.000000,452.000000) scale(0.100000,-0.100000)"
fill="#000000" stroke="none">
<path d="M1984 4476 c-41 -27 -53 -31 -69 -22 -11 6 -23 15 -27 20 -9 13 -111
-31 -128 -54 -17 -24 -32 -25 -71 -5 -33 18 -45 14 -107 -38 -38 -32 -43 -34
-80 -24 -21 6 -45 7 -53 3 -38 -19 -63 -36 -89 -61 -24 -23 -34 -26 -63 -21
-42 8 -92 -21 -126 -71 -14 -23 -29 -33 -46 -33 -25 0 -46 -26 -38 -47 3 -7
-2 -13 -11 -13 -9 0 -17 7 -17 15 -3 27 -4 33 -10 39 -10 10 -98 -82 -105
-109 -3 -14 -10 -25 -16 -25 -5 0 -7 -4 -4 -8 2 -4 0 -14 -5 -22 -7 -10 -12
-11 -15 -4 -3 6 -11 20 -18 30 -12 16 -16 16 -31 4 -21 -18 -81 -103 -76 -110
6 -8 -42 -30 -66 -30 -13 0 -23 -4 -23 -8 0 -5 -9 -18 -20 -30 -11 -12 -21
-25 -21 -29 -6 -41 -54 -93 -79 -86 -14 4 -21 -2 -26 -21 -3 -14 -10 -26 -15
-26 -4 0 -13 -17 -19 -39 -5 -21 -21 -46 -34 -56 -15 -12 -22 -24 -18 -34 5
-14 3 -14 -10 -3 -14 11 -19 9 -36 -15 -11 -15 -26 -48 -33 -72 -13 -45 -50
-91 -72 -91 -18 0 -37 -58 -37 -112 0 -42 -3 -47 -35 -62 -19 -9 -35 -20 -35
-24 -1 -4 -5 -26 -9 -50 -5 -23 -5 -45 0 -48 5 -3 9 -2 10 3 3 35 9 66 14 71
8 8 47 -37 40 -47 -3 -5 -1 -12 4 -15 5 -4 13 4 17 16 6 22 21 38 35 38 4 0 5
-19 4 -43 -1 -29 -9 -52 -25 -70 -22 -25 -24 -25 -37 -9 -8 9 -12 12 -9 6 3
-7 -1 -14 -9 -17 -8 -4 -16 2 -20 13 -5 16 -9 15 -38 -13 -31 -30 -47 -56 -61
-101 -4 -10 -1 -34 6 -52 11 -31 10 -36 -9 -49 -23 -16 -21 -55 3 -55 8 0 14
-4 14 -10 0 -13 -26 -13 -51 0 -15 9 -21 7 -25 -5 -8 -20 -8 -69 -1 -110 3
-18 -1 -36 -9 -46 -8 -8 -16 -31 -19 -50 -3 -19 -3 -29 1 -22 4 9 11 9 30 1
22 -10 28 -20 25 -40 0 -5 3 -8 9 -8 5 0 10 7 10 15 0 8 5 15 10 15 6 0 9 3 8
7 -2 5 2 8 7 8 10 0 16 -89 8 -112 -7 -18 -33 -16 -33 1 0 8 -4 17 -9 21 -6 3
-8 -4 -6 -15 5 -28 -9 -25 -30 6 -16 25 -23 44 -24 72 -1 6 -5 12 -10 12 -6 0
-5 -16 1 -37 15 -54 16 -82 2 -128 -6 -22 -8 -49 -3 -60 19 -50 22 -61 20 -80
-1 -11 -9 -25 -18 -32 -26 -20 -3 -153 28 -153 14 0 11 16 -10 56 -19 35 -19
64 0 64 20 0 48 -41 54 -77 3 -21 10 -48 15 -60 12 -30 -3 -37 -25 -13 -23 25
-39 26 -26 1 8 -14 6 -25 -9 -44 -11 -14 -16 -28 -11 -31 4 -3 11 -18 14 -34
3 -15 16 -41 29 -57 23 -29 26 -74 6 -86 -17 -10 2 -74 33 -110 16 -19 29 -36
30 -39 0 -3 1 -32 2 -66 2 -54 5 -64 36 -94 28 -28 32 -39 28 -67 -7 -43 14
-91 53 -123 69 -55 75 -61 62 -67 -6 -2 -10 -9 -6 -14 3 -5 1 -9 -5 -9 -7 0
-7 -9 0 -27 25 -63 35 -76 81 -109 43 -32 46 -37 36 -59 -15 -33 21 -77 84
-104 46 -19 48 -21 37 -48 -9 -24 -7 -30 25 -61 20 -18 55 -40 79 -48 39 -13
82 -54 57 -54 -14 0 12 -50 36 -72 11 -9 46 -24 79 -33 33 -10 64 -25 69 -34
6 -9 8 -16 6 -16 -2 0 2 -11 9 -23 14 -26 67 -52 106 -52 14 0 32 -8 40 -17
74 -87 76 -89 152 -99 32 -4 53 -13 63 -28 8 -11 14 -23 13 -26 -5 -14 60 -34
117 -37 36 -1 68 -3 72 -3 3 0 9 -13 13 -29 8 -38 43 -55 121 -55 55 -1 68 -4
82 -23 13 -17 30 -23 72 -26 30 -3 66 0 79 5 20 7 29 4 48 -17 25 -26 49 -30
133 -24 25 1 61 2 80 2 109 -5 156 -3 186 7 26 9 47 8 96 -5 35 -8 81 -14 104
-11 40 3 98 28 109 46 4 6 15 6 31 0 51 -20 146 -5 158 25 4 10 26 14 87 13
59 0 84 3 90 13 5 8 9 10 9 4 1 -5 10 7 21 28 16 30 25 38 40 34 10 -3 17 -2
14 2 -2 4 13 9 33 10 95 4 115 14 126 56 5 20 14 25 54 30 59 7 108 31 133 65
10 14 23 30 29 37 5 6 33 18 62 27 58 17 90 41 113 86 14 26 25 33 51 29 4 0
10 3 13 8 3 5 19 16 34 26 15 10 38 39 50 64 19 41 29 50 76 68 51 19 56 24
72 70 14 42 24 54 65 77 54 30 81 61 86 101 4 24 80 106 100 107 13 0 38 57
40 91 2 23 16 44 51 78 46 44 49 49 51 106 4 72 10 88 41 105 25 14 60 115 49
144 -8 22 2 61 22 81 22 22 34 90 23 129 -7 25 -4 37 16 69 36 53 47 84 30 84
-8 0 -21 -20 -30 -44 -14 -37 -49 -72 -60 -61 -6 5 34 91 51 110 9 9 24 15 35
13 20 -4 22 21 3 47 -14 17 -12 28 10 60 23 35 26 123 4 144 -13 14 -14 20 -2
42 20 41 24 103 8 134 -11 22 -12 37 -3 76 14 59 6 113 -20 136 -16 14 -18 23
-10 49 11 40 11 47 -1 47 -5 0 -10 -6 -10 -14 0 -7 -7 -31 -16 -52 -14 -33
-18 -36 -24 -20 -8 23 7 116 21 131 7 6 13 5 19 -5 8 -12 10 -9 10 12 0 16
-10 35 -27 50 -28 24 -40 48 -25 48 5 0 9 23 9 52 1 47 -2 55 -34 85 -19 19
-33 39 -30 47 3 7 2 19 -3 26 -5 8 -12 0 -20 -24 -7 -21 -14 -36 -15 -34 -8 8
-17 127 -10 138 10 16 38 -9 31 -27 -3 -8 -2 -12 3 -8 5 3 12 -1 14 -7 3 -7 6
0 6 16 1 27 -22 63 -69 112 -11 11 -23 37 -25 58 -7 49 -20 74 -64 114 -25 22
-39 48 -48 84 -15 56 -41 91 -85 114 -20 10 -31 27 -39 58 -12 48 -63 108
-100 116 -13 3 -27 18 -33 36 -18 51 -60 95 -97 103 -26 5 -38 15 -52 44 -9
20 -22 37 -27 37 -6 0 -10 6 -10 13 0 31 -36 48 -122 56 -4 1 -15 16 -24 34
-9 17 -31 47 -50 64 -30 28 -40 32 -73 28 -36 -5 -41 -2 -59 29 -23 38 -99 99
-113 90 -35 -21 -62 -13 -107 31 -48 45 -91 62 -135 51 -16 -4 -34 4 -65 29
-46 36 -103 51 -142 37 -19 -7 -38 -2 -90 24 -70 36 -117 43 -126 19 -8 -21
-40 -19 -73 6 -15 11 -50 23 -79 26 l-52 5 0 -31 c0 -24 -5 -32 -25 -37 -30
-8 -32 -25 -4 -42 15 -10 19 -20 15 -42 -4 -25 -1 -30 26 -35 38 -9 90 -9 115
-1 12 4 30 -1 46 -14 24 -19 93 -27 167 -19 35 4 50 -2 56 -25 7 -29 36 -36
113 -30 41 3 58 0 72 -12 10 -9 16 -20 14 -25 -3 -4 -1 -10 5 -14 10 -6 85
-19 146 -24 10 -1 22 -25 28 -53 3 -19 45 -44 74 -44 43 0 41 12 -3 20 -35 7
-46 20 -22 28 29 11 140 -9 132 -23 -4 -5 -19 -9 -34 -9 -18 0 -28 -5 -28 -15
0 -8 4 -12 8 -9 10 6 50 -14 47 -24 -9 -33 36 -67 101 -78 50 -9 57 -14 59
-46 3 -39 24 -58 110 -99 34 -16 62 -33 63 -37 3 -26 9 -45 19 -57 10 -12 77
-49 92 -50 13 0 20 -15 25 -52 4 -38 16 -53 86 -103 32 -23 34 -26 20 -47 -14
-21 -12 -24 21 -58 20 -20 50 -41 67 -47 33 -11 53 -46 37 -65 -14 -18 18 -77
62 -113 40 -32 57 -75 34 -84 -8 -3 -14 -18 -14 -32 0 -15 3 -24 7 -21 3 4 18
-10 32 -31 13 -20 31 -43 38 -50 15 -16 17 -42 3 -42 -6 0 -9 -5 -8 -11 2 -6
-1 -13 -7 -15 -5 -2 -18 24 -28 59 -10 34 -24 69 -31 77 -7 8 -26 47 -41 85
-29 70 -64 115 -90 115 -14 0 -15 -16 -2 -37 5 -7 6 -13 3 -13 -3 0 -2 -11 3
-23 17 -44 23 -171 11 -235 -6 -34 -24 -88 -40 -119 -30 -62 -99 -147 -101
-125 -1 6 -2 18 -3 25 -1 6 1 23 4 37 4 14 0 54 -7 90 -8 36 -16 72 -18 81 -6
31 -29 58 -62 76 -21 11 -33 25 -33 39 0 39 -20 82 -38 80 -38 -6 -34 -215 4
-247 8 -7 14 -31 14 -61 0 -47 -1 -48 -19 -31 -10 10 -26 42 -36 72 -20 61
-56 101 -92 101 -36 0 -96 28 -87 41 3 6 6 37 5 68 0 32 5 68 14 84 13 25 13
33 0 63 -8 19 -12 34 -9 34 2 0 -2 13 -11 30 -8 16 -15 31 -15 33 0 2 16 24
35 48 19 24 35 52 35 63 0 10 10 34 22 54 20 33 20 36 4 47 -14 11 -23 10 -49
-3 -38 -19 -44 -24 -86 -82 l-33 -45 5 87 c3 47 11 96 17 108 12 23 7 50 -9
50 -36 0 -131 -156 -113 -185 4 -5 7 -23 8 -40 1 -16 3 -34 4 -40 4 -20 -1
-32 -24 -60 -13 -15 -31 -52 -39 -82 -14 -47 -14 -58 -2 -88 8 -18 19 -36 25
-40 13 -8 13 31 -1 56 -5 11 -7 29 -4 40 5 16 9 18 21 8 12 -10 12 -14 2 -20
-9 -6 -6 -9 10 -9 13 0 20 4 17 10 -3 6 -4 10 0 10 3 0 10 -12 15 -26 6 -14
15 -22 20 -19 6 4 8 11 5 16 -3 5 1 6 9 3 10 -4 14 0 13 15 -1 14 -5 17 -13
10 -9 -7 -14 -4 -19 11 -4 13 -18 23 -36 27 -16 3 -29 9 -29 13 0 14 39 42 49
35 6 -3 11 2 12 12 0 17 1 17 8 0 7 -20 19 -21 37 -6 22 18 60 -7 78 -50 21
-55 20 -89 -5 -131 -38 -62 -80 -76 -129 -43 -45 30 -50 29 -50 -6 0 -23 -7
-32 -37 -47 -21 -10 -43 -19 -50 -20 -6 -1 -31 -5 -54 -8 -51 -7 -97 -37 -129
-83 -12 -18 -31 -33 -42 -33 -36 0 -95 38 -108 70 -7 17 -27 42 -44 55 -28 21
-39 23 -119 20 -78 -3 -93 -7 -134 -34 -38 -25 -57 -31 -102 -31 -47 0 -60 4
-86 29 -73 69 -195 68 -289 -4 -25 -19 -50 -28 -79 -30 -51 -2 -71 7 -114 53
-32 34 -34 34 -92 29 -46 -5 -65 -12 -88 -34 -50 -46 -120 -85 -143 -78 -15 5
-18 3 -14 -8 8 -21 -52 -60 -93 -61 -22 -1 -33 -6 -34 -16 0 -8 -3 -53 -5
-100 -3 -47 -10 -107 -17 -134 -15 -59 -37 -73 -37 -24 l-1 33 -16 -30 c-24
-44 -63 -63 -63 -30 0 8 -4 15 -10 15 -5 0 -10 -6 -10 -14 0 -17 -30 -30 -31
-13 0 7 -2 35 -4 62 -13 196 -34 299 -59 289 -16 -6 -17 -66 -2 -76 8 -6 6
-11 -4 -18 -12 -7 -12 -12 -2 -22 15 -15 16 -29 0 -26 -6 2 -14 -5 -16 -14 -2
-11 2 -18 12 -18 24 0 30 4 33 18 4 31 13 22 14 -14 0 -21 1 -74 2 -117 2 -73
1 -78 -18 -75 -16 2 -20 11 -20 45 0 23 -5 47 -12 54 -13 13 -37 3 -27 -12 3
-5 10 -7 15 -4 5 4 9 -1 9 -9 0 -8 -10 -20 -21 -27 -16 -8 -18 -13 -9 -19 7
-5 10 -15 6 -25 -3 -10 -9 -15 -12 -12 -10 10 -12 42 -2 54 5 7 5 14 -1 17 -5
4 -13 -4 -16 -16 -4 -13 -14 -31 -23 -40 -25 -29 -65 8 -93 86 -12 36 -26 63
-31 60 -4 -3 -9 14 -9 38 -1 24 -5 57 -8 73 -7 28 -8 27 -16 -20 -9 -60 -53
-150 -89 -187 -54 -53 -92 -5 -95 120 -1 54 2 73 9 62 5 -8 10 -26 10 -40 0
-36 11 -70 21 -70 5 0 9 12 9 26 0 21 4 24 20 19 22 -7 24 -2 10 25 -11 21 11
134 37 183 l15 30 15 -31 c18 -37 43 -50 43 -22 0 11 -8 24 -19 29 -23 13 -35
41 -22 54 6 6 14 2 23 -12 18 -29 32 -26 24 5 -8 30 8 54 36 54 18 0 118 -73
126 -92 8 -17 33 -6 50 22 14 22 21 27 30 18 17 -17 27 -2 12 17 -24 29 6 14
50 -25 25 -22 47 -40 50 -40 3 1 23 23 44 50 54 69 94 64 80 -9 -4 -16 -1 -32
5 -35 7 -5 11 2 11 16 0 33 21 60 39 49 11 -7 11 -16 -2 -56 -12 -33 -13 -45
-4 -42 6 2 16 18 21 35 6 21 15 32 27 32 26 0 24 17 -3 32 -13 7 -25 13 -28
13 -3 1 -31 14 -64 30 -56 27 -58 30 -53 61 3 18 0 57 -7 86 -6 29 -11 59 -10
66 1 6 2 18 3 26 0 8 12 17 26 20 14 4 25 10 25 15 0 5 -25 26 -55 46 -30 21
-55 42 -55 46 0 15 -48 40 -82 43 -56 5 -98 -13 -164 -70 -36 -30 -69 -54 -74
-54 -20 0 -9 -19 21 -37 31 -18 31 -18 24 -83 -3 -36 -6 -82 -6 -102 1 -35 -1
-37 -56 -63 -32 -14 -66 -34 -76 -43 -27 -24 -52 -78 -66 -144 -15 -69 -36
-82 -57 -33 -19 47 -17 95 6 125 24 31 26 86 3 98 -40 23 -104 -20 -142 -95
-31 -59 -33 -100 -8 -147 11 -23 22 -43 22 -46 1 -3 15 -27 33 -54 18 -28 33
-55 33 -60 5 -40 9 -147 13 -311 3 -104 8 -242 11 -306 5 -106 4 -117 -15
-139 -11 -12 -21 -31 -21 -42 -1 -16 -3 -24 -9 -45 -2 -8 -37 104 -46 146 -3
12 -11 51 -19 85 -43 186 -34 446 22 594 l23 63 -65 69 c-36 38 -65 76 -65 83
0 13 19 52 88 177 13 25 39 72 57 105 65 121 80 145 89 145 5 0 23 -9 40 -19
51 -32 63 -13 27 41 -33 49 -37 68 -21 99 12 22 28 17 71 -23 47 -43 88 -31
46 14 -13 14 -32 39 -44 58 l-21 33 20 61 c12 33 25 65 29 71 14 14 11 55 -3
55 -7 0 -29 -30 -48 -66 -19 -36 -38 -68 -41 -70 -4 -2 -25 14 -47 36 -26 26
-46 38 -56 34 -23 -9 -21 -16 30 -77 l46 -56 -23 -41 c-25 -43 -22 -44 -77 8
-18 16 -42 15 -42 -1 0 -7 16 -32 36 -56 l36 -42 -35 -77 c-62 -135 -173 -344
-183 -344 -27 2 -43 214 -23 304 25 107 -27 69 -76 -56 -18 -47 -32 -86 -29
-86 2 0 -2 -10 -10 -22 -14 -22 -54 -143 -61 -183 -2 -11 -11 -42 -20 -70 -31
-96 -58 -318 -65 -535 0 -14 -5 -32 -10 -40 -9 -13 -11 -13 -20 0 -5 8 -7 22
-4 30 3 8 10 41 16 72 9 51 8 61 -10 90 -18 29 -19 36 -7 58 8 14 14 32 15 40
0 8 -7 2 -16 -15 -17 -34 -44 -65 -54 -65 -8 0 3 71 15 102 9 23 45 34 55 17
12 -19 17 31 6 62 -5 14 -6 35 -1 45 5 10 9 23 9 27 1 4 6 11 12 15 21 13 38
89 26 116 -9 20 -5 32 28 82 36 55 38 62 30 104 -7 38 -5 46 11 58 11 7 17 17
14 22 -3 4 2 10 10 14 19 7 55 65 55 90 0 13 -5 17 -20 13 -11 -3 -18 -1 -14
4 3 5 12 9 20 9 8 0 13 4 9 9 -3 6 14 30 38 55 44 45 68 109 47 130 -12 12 6
28 57 54 42 22 53 38 53 77 0 17 14 32 50 55 59 38 80 64 80 101 0 22 8 31 43
47 59 28 91 64 84 97 -2 15 0 28 7 30 6 2 30 9 52 15 23 5 54 20 69 32 l29 22
-39 17 -38 17 24 15 c13 8 49 18 79 22 78 9 112 15 120 20 8 5 24 64 21 78 -1
8 2 9 49 11 19 1 44 8 55 15 18 11 17 12 -12 8 -18 -2 -33 0 -33 4 0 12 59 29
65 18 12 -19 50 -9 65 18 13 24 22 27 80 29 59 3 68 6 92 35 25 29 32 32 98
35 57 3 75 8 88 24 19 23 67 36 77 20 5 -8 11 -7 21 1 8 6 14 7 14 2 0 -5 16
-8 37 -8 28 1 38 6 44 23 8 21 23 27 59 24 8 -1 43 -4 77 -7 76 -8 90 -2 69
31 -15 22 -14 25 11 50 l27 27 -34 12 c-31 11 -35 16 -32 44 3 30 2 31 -36 31
-29 0 -53 -9 -88 -34z m556 -34 c23 -22 23 -23 3 -13 -12 6 -28 11 -37 11 -8
0 -27 5 -43 12 -15 6 -31 11 -35 10 -9 -2 -11 22 -2 31 10 10 87 -24 114 -51z
m-470 28 c0 -13 -27 -26 -70 -34 l-35 -7 40 26 c42 26 65 32 65 15z m650 -30
c44 -22 55 -36 39 -46 -6 -3 -15 0 -20 7 -5 8 -9 11 -9 6 0 -11 -80 32 -80 43
0 16 27 12 70 -10z m-866 -4 c-5 -13 -83 -56 -101 -56 -5 0 10 16 31 35 40 36
80 48 70 21z m624 -7 c26 -7 49 -14 52 -16 8 -7 -24 -23 -47 -23 -29 0 -94 31
-87 42 7 11 26 10 82 -3z m-358 -15 c0 -11 -52 -28 -94 -31 -46 -2 -48 -2 -32
16 12 13 31 18 71 19 30 0 55 -2 55 -4z m803 -16 c32 -18 57 -40 57 -49 0 -13
-98 32 -104 47 -7 17 17 18 47 2z m-1297 -40 c-9 -12 -16 -19 -16 -14 0 5 -9
1 -20 -9 -19 -18 -27 -11 -12 11 10 15 55 44 60 39 2 -2 -3 -14 -12 -27z m262
11 c-8 -4 -30 -11 -48 -14 -18 -3 -36 -8 -40 -10 -3 -2 -12 0 -20 5 -11 7 -7
12 18 23 34 14 117 11 90 -4z m846 15 c9 -3 16 -10 16 -15 0 -14 -81 -10 -115
6 -30 13 -29 13 27 14 31 1 63 -2 72 -5z m-195 -20 c2 -2 -5 -6 -15 -9 -10 -4
-26 -10 -35 -15 -9 -5 -20 -5 -25 0 -5 5 -20 10 -34 12 l-25 5 25 10 c22 9 97
7 109 -3z m-427 -19 c-3 -13 -72 -18 -72 -5 0 5 -3 9 -7 9 -5 -1 -15 -1 -23 1
-11 1 -10 3 4 9 24 9 102 -1 98 -14z m803 3 c19 -1 33 -4 30 -7 -3 -3 5 -11
17 -18 21 -13 18 -14 -34 -10 -60 4 -100 24 -76 38 6 4 15 6 20 3 4 -2 23 -5
43 -6z m-176 -29 c-19 -12 -109 -11 -109 0 0 11 52 18 94 12 20 -2 24 -6 15
-12z m-1289 -7 c0 -12 -14 -25 -39 -37 -22 -10 -42 -24 -45 -31 -3 -8 -10 -14
-16 -14 -16 0 31 66 60 84 33 20 40 20 40 -2z m220 6 c0 -11 -45 -28 -76 -28
-33 0 -21 18 19 28 41 11 57 11 57 0z m223 -7 c8 -8 8 -11 -2 -11 -7 0 -9 -5
-5 -12 6 -10 4 -10 -7 -2 -8 5 -32 11 -54 13 -22 1 -49 5 -60 9 -17 5 -16 7
10 13 41 9 104 4 118 -10z m1267 -21 c42 -41 54 -69 23 -51 -32 18 -93 78 -86
84 12 13 22 7 63 -33z m-227 0 c15 0 27 -4 27 -9 0 -10 -48 -28 -67 -25 -7 1
-25 2 -40 3 -26 1 -26 1 -7 22 12 13 26 18 39 15 11 -3 32 -6 48 -6z m170 -10
c59 -47 71 -59 66 -64 -3 -4 -19 0 -35 9 -16 8 -34 15 -41 15 -17 0 -64 46
-56 54 9 8 49 -1 66 -14z m-1608 -22 c7 -7 -81 -38 -109 -38 -28 0 -9 16 39
33 40 14 60 16 70 5z m200 2 c4 -6 -10 -10 -35 -10 -25 0 -39 4 -35 10 3 6 19
10 35 10 16 0 32 -4 35 -10z m-444 -48 c-7 -16 -27 -36 -47 -45 -38 -18 -39
-18 -23 15 10 23 69 71 77 63 3 -2 -1 -17 -7 -33z m2070 17 c25 -18 59 -66 59
-84 0 -8 -71 44 -87 64 -13 15 -18 41 -7 41 3 0 19 -9 35 -21z m-1821 -24 c22
-14 -4 -25 -55 -24 -30 1 -52 6 -49 11 3 4 14 8 25 8 10 0 19 4 19 9 0 9 43 7
60 -4z m1632 -1 c28 -17 -13 -28 -69 -19 -24 4 -31 10 -26 21 5 13 15 15 46
10 22 -4 44 -9 49 -12z m164 -34 c52 -26 65 -48 23 -42 -16 2 -29 7 -29 11 0
3 -13 12 -30 19 -30 14 -41 32 -18 32 6 0 31 -9 54 -20z m-2004 -10 c-18 -11
-39 -20 -47 -20 -8 0 -15 -4 -15 -8 0 -4 -11 -9 -25 -10 -18 -1 -23 2 -19 13
4 8 7 15 8 15 0 0 19 7 41 15 22 8 51 14 65 15 24 0 24 -1 -8 -20z m-252 -48
c-1 -19 -33 -62 -48 -62 -5 0 -17 -10 -25 -22 -15 -22 -16 -22 -16 -3 -1 21
19 55 54 91 22 24 35 22 35 -4z m2509 -42 c34 -60 25 -68 -24 -20 -50 49 -62
87 -21 69 13 -6 33 -28 45 -49z m-2429 8 c-1 -26 -123 -87 -135 -68 -3 6 -2
10 3 10 4 0 18 9 31 21 44 41 101 62 101 37z m2325 -4 c14 -9 25 -13 25 -10 0
4 12 -4 27 -18 15 -14 24 -28 20 -32 -10 -10 -87 27 -98 47 -18 34 -11 37 26
13z m-2325 -73 c-44 -23 -100 -36 -100 -23 0 23 40 39 100 40 l35 1 -35 -18z
m2331 7 c19 -6 40 -18 47 -25 7 -7 18 -13 24 -13 6 0 9 -3 5 -6 -12 -12 -113
17 -125 36 -15 24 -3 26 49 8z m-2578 -20 c2 -7 -11 -30 -29 -51 -19 -20 -34
-44 -34 -53 0 -8 -4 -13 -10 -9 -5 3 -6 15 -1 28 5 12 9 26 9 30 0 13 41 67
51 67 5 0 11 -6 14 -12z m2849 -62 c-2 -5 2 -12 9 -16 6 -4 10 -13 8 -19 -6
-17 -66 44 -69 70 -5 36 2 38 28 8 15 -18 26 -37 24 -43z m-2782 38 c0 -18
-47 -67 -81 -84 -32 -17 -39 -18 -39 -6 0 20 37 59 75 79 32 17 45 21 45 11z
m2700 -19 c30 -16 60 -51 60 -72 0 -7 -17 -2 -45 14 -25 13 -45 28 -45 33 0 5
-3 15 -6 24 -8 20 -1 20 36 1z m-2670 -51 c0 -3 -7 -12 -15 -20 -8 -9 -15 -13
-15 -10 0 3 -16 -2 -35 -10 -45 -18 -46 -1 -2 26 30 19 67 27 67 14z m2680
-29 c5 3 10 1 10 -5 0 -6 12 -16 28 -22 l27 -12 -37 -4 c-36 -3 -96 19 -110
42 -12 18 25 24 49 9 12 -8 27 -12 33 -8z m-2940 -36 c0 -21 -36 -89 -47 -89
-5 0 2 53 13 88 8 28 34 29 34 1z m50 7 c0 -3 -4 -8 -10 -11 -5 -3 -10 -1 -10
4 0 6 5 11 10 11 6 0 10 -2 10 -4z m3103 -16 c9 -11 14 -20 12 -20 -3 0 2 -11
11 -25 9 -14 14 -28 12 -31 -8 -7 -68 65 -68 81 0 21 12 19 33 -5z m-3093 -35
c-15 -29 -56 -58 -73 -52 -6 2 8 23 32 46 46 45 63 47 41 6z m3079 -31 c30
-44 22 -53 -21 -23 -46 32 -54 42 -62 67 -7 22 -7 22 26 6 19 -8 44 -31 57
-50z m-129 32 c0 -3 -4 -8 -10 -11 -5 -3 -10 -1 -10 4 0 6 5 11 10 11 6 0 10
-2 10 -4z m-2900 -41 c-7 -8 -19 -15 -26 -15 -8 0 -14 -4 -14 -10 0 -5 -7 -10
-15 -10 -19 0 -19 9 2 32 9 10 27 18 41 18 21 0 22 -2 12 -15z m2998 -32 c18
-14 32 -26 30 -28 -8 -8 -91 15 -108 30 -48 44 20 42 78 -2z m119 2 c0 -8 -4
-12 -9 -9 -5 3 -6 10 -3 15 9 13 12 11 12 -6z m-3365 -63 c-8 -41 -38 -87 -45
-68 -7 17 10 85 26 104 15 18 25 -2 19 -36z m58 38 c0 -5 -4 -10 -9 -10 -6 0
-13 5 -16 10 -3 6 1 10 9 10 9 0 16 -4 16 -10z m3391 -78 c0 -15 2 -35 4 -45
3 -18 3 -18 -14 0 -10 10 -17 21 -15 25 3 4 -1 10 -6 13 -17 10 -30 53 -23 71
5 15 10 13 30 -10 13 -15 23 -39 24 -54z m-92 42 c4 3 24 -21 44 -52 22 -35
32 -59 25 -61 -13 -4 -98 84 -98 103 0 17 14 30 18 17 2 -6 7 -9 11 -7z
m-3279 -1 c0 -12 -52 -83 -61 -83 -4 0 -14 -3 -23 -6 -27 -10 -18 10 23 54 36
38 61 53 61 35z m37 -54 c-1 -14 -17 -28 -55 -46 -29 -14 -56 -22 -59 -19 -4
3 -4 7 -2 9 2 2 22 16 44 32 32 25 52 37 72 44 1 1 1 -8 0 -20z m3222 -19 c25
-13 74 -61 68 -66 -7 -8 -72 19 -105 43 -49 37 -21 55 37 23z m-506 -60 c-3
-11 -12 -20 -19 -20 -8 0 -14 -4 -14 -10 0 -5 7 -7 16 -3 11 4 15 2 13 -6 -3
-7 -8 -12 -13 -11 -17 3 -25 -26 -16 -63 4 -20 4 -37 0 -37 -22 0 -26 100 -5
139 18 35 46 43 38 11z m-2967 -38 c-9 -17 -16 -40 -16 -51 0 -22 -19 -40 -21
-19 -4 47 26 127 42 111 8 -8 6 -20 -5 -41z m69 1 c-18 -44 -43 -73 -61 -73
-21 0 4 56 38 85 16 14 31 25 34 25 2 0 -3 -17 -11 -37z m3621 0 c11 -21 20
-44 18 -50 -1 -7 -2 -18 -3 -25 -1 -11 -16 -3 -16 10 -1 4 -10 22 -22 41 -20
31 -21 61 -4 61 4 0 16 -17 27 -37z m-27 -57 c13 -26 21 -49 19 -51 -3 -3 -18
7 -35 23 -33 30 -66 86 -56 96 13 12 48 -21 72 -68z m-3543 28 c-3 -9 -6 -17
-6 -20 0 -7 -62 -35 -67 -30 -7 7 53 66 67 66 7 0 9 -7 6 -16z m3504 -61 c33
-33 34 -35 10 -29 -14 3 -33 6 -43 6 -10 0 -15 5 -12 10 3 6 0 10 -8 10 -7 0
-24 12 -38 26 l-24 27 40 -7 c27 -5 52 -19 75 -43z m-550 10 c0 -21 -3 -24 -9
-14 -8 12 -11 9 -16 -12 -4 -15 -11 -27 -17 -27 -5 0 -6 -4 -3 -10 3 -5 -1
-10 -9 -10 -13 0 -14 4 -4 25 6 14 15 25 20 25 4 0 7 3 6 8 -2 12 14 42 23 42
5 0 9 -12 9 -27z m-2250 -23 c32 -13 33 -15 12 -20 -12 -3 -52 -3 -89 -2 l-67
4 37 17 c44 20 60 20 107 1z m-937 -71 c-4 -74 -8 -89 -20 -94 -8 -3 -13 5
-14 20 -1 14 -2 33 -2 43 -1 9 2 32 6 50 10 50 33 36 30 -19z m75 4 c0 -28
-46 -113 -61 -113 -8 0 -3 54 9 85 5 15 40 53 50 55 1 0 2 -12 2 -27z m47 17
c-3 -5 -11 -10 -16 -10 -6 0 -7 5 -4 10 3 6 11 10 16 10 6 0 7 -4 4 -10z m779
-1 c-3 -5 -9 -7 -14 -4 -4 3 -10 0 -12 -6 -2 -7 -8 -6 -16 3 -10 13 -7 15 18
16 17 0 28 -4 24 -9z m130 -24 c46 -14 -9 -24 -161 -29 -105 -3 -163 -1 -163
5 0 12 59 38 74 33 56 -19 136 -23 152 -7 8 8 14 11 14 7 0 -5 5 -3 11 3 7 7
19 8 33 3 11 -5 30 -11 40 -15z m2838 -18 c7 -12 13 -26 14 -32 18 -80 18 -78
-4 -66 -20 11 -43 42 -48 66 -18 80 -18 78 4 66 12 -6 27 -21 34 -34z m47 26
c10 -20 14 -61 11 -113 -2 -34 -3 -33 -15 16 -7 28 -15 57 -19 63 -4 6 -9 20
-11 31 -5 25 21 27 34 3z m-806 -8 c-3 -9 -8 -14 -10 -11 -3 3 -2 9 2 15 9 16
15 13 8 -4z m-2963 -8 c0 -2 -11 -17 -25 -33 -14 -16 -25 -32 -25 -35 0 -3
-11 -11 -25 -17 -20 -9 -23 -9 -18 3 3 8 9 15 14 15 5 0 9 6 9 13 0 18 38 57
55 57 8 0 15 -2 15 -3z m3654 -42 c10 -8 24 -23 30 -33 6 -11 17 -29 24 -41 7
-11 9 -21 4 -21 -17 0 -75 45 -100 78 l-25 32 24 0 c13 0 32 -7 43 -15z
m-2885 -9 c9 -11 9 -16 0 -21 -16 -11 8 -24 32 -18 15 4 17 8 8 19 -8 10 -8
14 0 14 15 0 24 -44 17 -83 -3 -18 -19 -47 -35 -64 -23 -26 -35 -31 -57 -27
-47 8 -52 11 -79 53 -32 52 -33 81 -2 81 13 0 29 6 36 13 11 10 13 7 8 -13 -7
-30 7 -61 16 -36 6 15 3 41 -8 77 -5 16 -1 19 23 19 16 0 35 -6 41 -14z m3051
-66 c0 -5 -2 -10 -4 -10 -3 0 -8 5 -11 10 -3 6 -1 10 4 10 6 0 11 -4 11 -10z
m-4005 -20 c3 -5 -1 -10 -9 -10 -9 0 -16 5 -16 10 0 6 4 10 9 10 6 0 13 -4 16
-10z m3984 -56 c20 -34 31 -107 18 -120 -18 -19 -68 120 -52 146 9 15 11 13
34 -26z m-3874 17 c3 -6 -8 -25 -25 -44 -16 -19 -27 -36 -24 -39 2 -3 -5 -8
-16 -11 -18 -4 -20 -2 -14 16 8 28 52 87 64 87 5 0 11 -4 15 -9z m3809 -62
c-3 -5 0 -9 6 -9 11 0 52 -81 45 -88 -2 -2 -20 8 -39 23 -33 25 -69 78 -60 88
8 8 54 -5 48 -14z m-2967 -35 c-3 -3 -16 -4 -29 -2 l-23 5 25 10 c23 10 41 1
27 -13z m-57 -33 c0 -23 -28 -61 -46 -61 -20 0 -97 71 -87 81 12 12 75 15 106
6 15 -5 27 -16 27 -26z m171 16 c7 -10 -28 -77 -40 -77 -11 0 -82 62 -77 67 2
3 22 11 42 18 38 13 63 10 75 -8z m2138 -28 c-2 -30 -5 -45 -10 -37 -4 8 -6
23 -4 34 2 10 4 27 4 37 1 9 3 17 6 17 3 0 5 -23 4 -51z m-3042 -9 c7 -19 11
-31 16 -50 31 -127 47 -157 125 -238 22 -22 31 -40 27 -51 -4 -9 -9 -31 -12
-48 -3 -18 -10 -33 -14 -33 -5 0 -8 -3 -7 -7 1 -5 -2 -35 -7 -68 -13 -92 -13
-96 -15 -155 -2 -52 -2 -53 -11 -22 -9 29 -12 31 -31 21 -24 -13 -188 -19
-188 -7 0 4 -7 8 -16 8 -12 0 -14 -9 -12 -37 3 -36 5 -38 33 -34 29 5 114 4
185 -1 27 -2 35 -7 36 -23 2 -54 14 -183 20 -210 3 -16 7 -39 9 -50 1 -11 3
-20 4 -20 2 0 4 -8 6 -18 13 -68 79 -251 137 -377 11 -25 27 -62 34 -83 8 -21
26 -57 42 -80 15 -23 31 -50 35 -59 3 -10 11 -18 17 -18 5 0 10 -5 10 -11 0
-10 49 -77 85 -115 5 -6 30 -34 55 -63 60 -71 303 -281 324 -281 4 0 32 -17
64 -39 75 -50 269 -144 355 -171 69 -22 90 -38 26 -20 -54 16 -97 12 -108 -9
-12 -22 -5 -31 25 -31 49 0 53 -6 32 -67 -10 -31 -18 -62 -18 -69 0 -7 -9 -18
-20 -24 -21 -11 -27 -35 -10 -43 22 -11 -7 -1 -68 23 -61 24 -63 26 -57 56 3
17 17 55 32 85 15 30 26 57 25 61 -1 4 9 15 23 24 34 22 31 40 -6 53 -43 15
-49 14 -49 -7 0 -10 -10 -36 -21 -57 -12 -22 -30 -58 -41 -79 -21 -42 -41 -66
-55 -66 -4 0 -31 10 -60 22 -51 21 -51 21 -36 45 8 12 20 23 27 23 6 0 22 10
36 23 14 12 51 40 82 61 32 22 58 40 58 42 0 1 -16 12 -35 24 -33 20 -73 21
-61 2 6 -11 -61 -76 -88 -86 -17 -6 -18 -2 -14 44 4 35 13 59 29 77 17 18 20
27 11 30 -7 3 -19 11 -26 19 -8 8 -24 15 -37 16 -24 3 -25 2 -35 -112 -4 -41
-8 -84 -10 -95 -1 -11 -3 -28 -3 -37 -1 -25 -17 -22 -65 10 -22 15 -50 32 -61
36 -13 5 -16 10 -7 13 6 3 12 13 12 24 0 40 93 156 122 151 14 -3 16 29 2 40
-8 7 -21 18 -28 25 -8 7 -16 9 -20 6 -3 -4 -6 0 -6 8 -1 8 -11 -5 -23 -28 -37
-70 -81 -131 -104 -144 -28 -15 -29 -26 -5 -53 11 -13 5 -11 -18 7 -89 69
-187 154 -209 180 -13 15 -26 26 -29 23 -2 -3 -17 11 -32 32 -15 20 -38 49
-51 63 -40 43 -89 107 -89 117 0 4 -8 17 -18 28 -10 10 -30 42 -46 69 -16 28
-34 57 -41 65 -24 29 -142 266 -170 340 -15 41 -36 96 -45 122 -18 48 -26 89
-35 183 -4 43 -3 47 7 27 8 -17 17 -22 32 -17 54 16 112 26 156 29 37 2 48 13
42 41 -6 32 -16 39 -42 25 -26 -14 -94 -25 -152 -24 -37 1 -48 -2 -48 -14 0
-42 -17 28 -25 103 -2 17 -8 53 -14 80 -20 103 -4 445 21 445 5 0 7 4 3 9 -6
11 46 240 74 321 34 97 43 116 48 100 3 -8 7 -22 10 -30z m3007 -10 c4 -27 11
-52 16 -55 6 -3 10 -11 10 -16 0 -6 -7 -3 -16 5 -8 9 -32 16 -53 16 -21 0 -55
9 -77 19 -21 11 -43 16 -49 13 -5 -3 -3 5 6 18 8 14 19 30 22 37 5 7 32 12 71
12 l64 0 6 -49z m669 -47 c34 -91 60 -198 72 -290 2 -21 7 -50 10 -64 5 -23 2
-27 -22 -32 -15 -3 -35 -7 -43 -10 -39 -10 -89 -18 -130 -20 -47 -2 -46 0 -42
-64 2 -29 24 -29 62 -2 21 16 48 23 104 27 l76 5 0 30 c0 60 10 19 13 -56 l4
-76 -25 20 c-30 23 -47 13 -34 -22 20 -52 -13 -82 -91 -82 -47 0 -60 16 -52
66 7 47 -17 51 -40 6 -41 -78 30 -142 140 -126 27 3 93 48 99 67 2 8 4 -36 3
-98 -1 -62 -5 -119 -9 -125 -6 -9 -8 -8 -8 2 0 9 -8 11 -24 7 -16 -4 -29 0
-41 14 -10 11 -13 20 -8 20 6 0 13 8 15 18 4 15 12 18 37 14 31 -4 31 -4 31
42 0 46 0 46 -22 32 -13 -8 -67 -24 -121 -36 -62 -15 -101 -28 -104 -38 -8
-19 24 -44 111 -87 96 -48 98 -50 78 -85 -21 -36 -70 -44 -104 -18 -34 26 -62
22 -97 -14 -32 -32 -51 -81 -51 -130 0 -26 1 -27 31 -16 37 13 130 -5 170 -32
33 -23 46 -14 50 35 l4 40 -37 0 c-20 1 -40 3 -43 6 -13 13 8 35 50 52 24 10
47 27 50 38 8 24 28 25 21 2 -13 -45 -25 -101 -29 -135 -5 -43 -38 -150 -44
-144 -5 5 -11 33 -12 56 -2 36 -95 66 -167 55 -98 -14 -118 -140 -30 -195 33
-21 126 -35 126 -19 0 6 4 8 9 4 11 -6 51 33 51 49 0 5 2 7 5 4 3 -3 -5 -35
-18 -72 -14 -36 -22 -66 -18 -66 3 0 1 -4 -5 -8 -6 -4 -16 -16 -22 -27 -10
-17 -11 -13 -6 20 4 32 1 44 -13 56 -23 20 -57 29 -73 19 -8 -5 -29 0 -50 11
-35 18 -70 17 -70 -2 0 -5 -3 -8 -8 -6 -11 3 -49 -38 -65 -70 -18 -38 -16 -58
8 -59 48 -3 165 -52 183 -77 7 -9 18 -15 23 -12 14 9 11 -11 -5 -24 -9 -7 -22
-8 -37 -3 -34 13 -49 5 -49 -26 0 -50 -37 -73 -65 -42 -13 15 -14 22 -5 40 10
18 8 24 -6 35 -22 16 -41 10 -49 -16 -8 -23 -15 -24 -41 -4 -12 9 -14 14 -6
15 7 0 11 4 8 9 -4 5 5 18 19 28 30 21 26 48 -8 57 -27 7 -44 -8 -52 -45 -4
-16 -13 -36 -21 -44 -9 -8 -16 -27 -17 -41 -2 -22 4 -29 34 -39 89 -32 149
-67 155 -91 3 -13 10 -24 16 -24 5 0 0 -13 -11 -29 -30 -42 -81 -95 -81 -83 0
5 -12 13 -26 16 -35 9 -91 46 -138 90 -30 29 -41 34 -52 25 -8 -6 -14 -8 -14
-3 0 12 -29 -29 -30 -42 0 -6 24 -20 53 -32 58 -25 133 -86 141 -118 5 -15 -7
-33 -44 -72 -28 -29 -53 -52 -58 -52 -4 0 -20 38 -36 83 -70 200 -69 199 -107
154 -24 -29 -24 -37 4 -67 28 -31 63 -108 53 -117 -4 -4 -11 -1 -16 7 -6 8
-10 12 -10 7 0 -15 -65 25 -91 56 l-27 31 -41 -28 c-40 -28 -53 -52 -28 -53
10 -1 85 -27 245 -87 l32 -13 -33 -30 c-19 -17 -58 -47 -87 -68 -41 -29 -49
-32 -36 -14 44 63 4 150 -86 185 -55 21 -57 21 -96 4 -58 -26 -77 -62 -73
-135 3 -50 115 -122 170 -110 20 5 21 4 10 -7 -8 -7 -37 -24 -64 -38 -28 -14
-53 -29 -57 -35 -5 -6 -8 -3 -8 6 0 9 -15 41 -32 71 -18 29 -44 76 -58 103
-14 28 -26 52 -27 54 -1 2 -15 -5 -30 -15 -30 -21 -41 -44 -20 -44 7 0 23 -18
36 -40 12 -22 20 -40 17 -40 -10 0 -61 24 -76 36 -28 22 -74 31 -102 21 -32
-10 -36 -23 -10 -31 26 -9 112 -155 112 -192 0 -8 8 -14 18 -14 9 -1 -17 -14
-58 -30 -212 -81 -207 -79 -175 -52 45 37 50 77 14 116 -24 26 -32 29 -88 27
-54 -1 -61 1 -61 18 0 15 7 19 40 18 22 0 40 -6 40 -11 0 -6 5 -3 11 7 8 13 7
24 -5 42 -14 21 -22 24 -54 19 -70 -11 -102 -37 -102 -84 0 -31 56 -62 119
-67 68 -5 82 -16 46 -36 -25 -12 -35 -12 -86 1 -32 9 -61 13 -65 10 -3 -4 2
-24 12 -45 l19 -38 60 2 c50 2 55 1 30 -7 -16 -5 -47 -12 -67 -14 -20 -2 -42
-7 -48 -11 -6 -4 -22 -8 -36 -10 -20 -2 -28 5 -43 39 -17 37 -31 110 -35 176
-1 19 -7 26 -28 28 -16 2 -28 -2 -28 -8 0 -6 -4 -9 -8 -6 -4 2 -13 1 -20 -3
-9 -5 -7 -16 8 -43 18 -35 33 -111 34 -173 0 -29 -2 -30 -55 -36 -30 -3 -61
-4 -70 -1 -28 7 -45 80 -40 179 1 20 2 21 46 7 39 -11 47 -11 51 1 3 7 1 23
-6 34 -10 20 -21 24 -62 24 -10 0 -18 4 -18 10 0 5 -7 4 -15 -3 -12 -10 -15
-10 -15 0 0 10 -3 10 -15 0 -10 -8 -15 -9 -15 -1 0 7 -8 8 -22 2 -13 -4 -33
-7 -46 -6 -25 2 -52 -28 -52 -58 0 -14 5 -17 18 -12 23 9 72 24 73 22 13 -32
14 -164 0 -185 -9 -16 -102 -22 -106 -7 -51 182 -74 244 -96 255 -10 6 -19 7
-19 2 0 -5 -17 -27 -38 -50 -20 -23 -61 -68 -90 -100 -43 -49 -56 -58 -77 -54
-25 4 -46 22 -26 22 5 0 7 14 5 32 -6 33 28 142 47 153 5 4 22 -3 39 -15 27
-19 29 -20 38 -3 10 20 5 44 -12 56 -12 9 26 5 114 -12 108 -20 136 -23 235
-22 134 1 267 19 395 55 57 16 183 65 192 74 7 7 20 12 30 12 44 0 261 112
361 187 123 91 242 198 312 281 44 52 82 100 84 106 2 6 29 49 59 96 55 84 95
157 119 215 60 147 87 227 109 325 14 63 26 122 26 130 1 8 4 20 9 25 14 18
21 305 9 380 -6 39 -13 98 -16 132 -6 57 -4 63 20 90 35 37 114 201 121 249 3
22 7 50 10 64 2 14 4 31 4 38 2 24 9 10 44 -85z m-3373 21 c0 -7 -18 -26 -40
-44 -22 -18 -37 -37 -34 -44 5 -14 -13 -32 -22 -23 -17 17 -10 55 21 103 34
52 35 54 55 37 11 -10 20 -23 20 -29z m3070 3 c20 -32 30 -174 20 -292 -3 -31
-30 75 -30 118 0 22 -8 49 -21 66 -25 34 -41 98 -27 107 6 4 6 9 -2 14 -7 4
-10 12 -6 18 8 13 50 -6 66 -31z m-3517 16 c-7 -3 -13 -12 -13 -20 0 -9 -6
-13 -14 -10 -17 7 -41 -18 -32 -32 3 -5 2 -11 -3 -13 -4 -1 -17 -20 -27 -40
l-19 -37 -12 24 c-6 14 -7 23 -2 19 5 -3 9 10 9 29 0 49 31 85 70 82 17 -1 33
2 36 7 3 5 9 6 13 2 3 -4 0 -9 -6 -11z m-118 -7 c-9 -7 -17 -33 -19 -66 -6
-80 -21 -76 -24 6 l-3 71 30 0 c24 0 27 -3 16 -11z m2160 -12 c48 -20 57 -30
26 -30 -11 0 -18 3 -16 6 7 12 -71 33 -119 33 -37 -1 -58 -8 -92 -32 -25 -17
-52 -31 -62 -31 -14 1 -14 2 3 12 11 6 28 18 38 27 47 40 143 47 222 15z m378
9 c3 -5 -17 -8 -45 -9 -27 -1 -54 -6 -61 -13 -6 -6 -18 -11 -26 -11 -10 0 -4
8 14 20 30 20 109 28 118 13z m-860 -10 c-13 -2 -35 -2 -50 0 -16 2 -5 4 22 4
28 0 40 -2 28 -4z m1357 -2 c0 -6 9 -8 19 -6 12 2 21 -3 24 -14 6 -24 81 -60
101 -49 12 6 16 5 16 -6 0 -24 32 -37 46 -19 7 10 16 13 25 8 25 -16 62 -14
75 3 8 11 9 19 2 23 -6 4 -1 10 11 14 11 3 21 13 21 21 0 11 8 14 31 10 17 -2
32 -6 33 -8 28 -39 45 -71 54 -104 7 -23 23 -53 38 -69 16 -17 23 -33 19 -44
-4 -9 -8 -24 -11 -35 -2 -10 -5 -21 -8 -23 -2 -3 -1 -17 3 -31 5 -15 5 -36 1
-46 -6 -18 -8 -17 -33 8 -14 14 -30 26 -36 26 -12 0 -56 77 -65 114 -10 41
-21 22 -34 -60 -6 -39 -17 -84 -23 -100 -15 -35 -16 -40 -18 -59 -1 -10 -12
-15 -31 -15 -16 0 -30 -4 -30 -9 0 -6 9 -8 20 -6 11 2 20 0 20 -5 0 -13 -25
-19 -40 -10 -8 5 -21 5 -30 0 -9 -5 -22 -5 -30 0 -8 5 -19 6 -25 3 -5 -4 -6
-2 -2 3 8 9 12 10 39 13 8 1 9 4 2 11 -6 6 -43 7 -104 1 -52 -5 -99 -7 -103
-4 -5 3 -5 18 -2 33 4 18 -1 44 -13 72 -28 64 -32 75 -38 131 -3 29 -10 56
-15 62 -6 5 -9 5 -9 -1 0 -6 -25 -47 -55 -92 -62 -92 -58 -112 6 -26 22 31 44
52 48 47 4 -4 17 -46 29 -93 20 -82 23 -206 6 -250 -3 -8 -8 -28 -11 -45 -3
-16 -16 -56 -29 -88 -31 -74 -69 -247 -54 -247 6 0 21 57 37 145 2 10 9 23 16
27 6 4 9 8 5 8 -11 0 29 88 51 112 11 11 19 24 16 27 -2 4 0 13 6 21 7 12 9
10 9 -7 0 -13 5 -23 10 -23 14 0 32 49 23 63 -4 7 0 6 10 -1 9 -8 16 -17 15
-20 -3 -26 3 -34 16 -23 11 9 15 7 19 -8 5 -22 54 -57 65 -47 4 4 -1 14 -12
21 -14 11 -17 21 -11 42 l7 28 17 -24 18 -24 15 22 c13 18 17 19 21 6 9 -21
27 -19 27 4 0 11 5 23 12 27 6 4 8 3 5 -3 -4 -6 2 -20 12 -32 18 -21 20 -21
29 -4 23 40 34 -25 14 -84 -10 -30 -9 -31 8 -20 11 6 23 8 27 3 17 -17 7 -190
-16 -276 -12 -47 -24 -93 -26 -103 -2 -10 -7 -28 -11 -40 -5 -18 -4 -20 7 -10
12 12 19 31 21 61 1 6 6 12 11 12 6 0 8 3 4 6 -3 3 1 27 8 52 12 41 28 125 39
202 2 14 0 37 -4 51 -4 14 -11 57 -15 95 -4 38 -9 76 -10 84 -1 8 -5 58 -9
110 -7 83 -5 101 12 138 l19 43 67 -65 c76 -74 75 -70 50 -229 -8 -56 -17
-115 -20 -132 -2 -16 -10 -64 -19 -105 -8 -41 -21 -115 -30 -165 -22 -132 -28
-158 -38 -185 -4 -12 -49 -201 -52 -220 0 -3 -4 -11 -8 -17 -5 -7 -10 -23 -13
-35 -5 -22 -44 -230 -44 -235 0 -2 -6 -3 -14 -3 -26 0 -45 82 -32 140 1 8 6
32 11 53 4 20 12 37 18 37 6 0 8 3 4 6 -3 4 0 22 8 41 8 20 15 61 14 92 l-1
56 -13 -35 c-7 -19 -9 -39 -4 -44 4 -5 2 -21 -6 -36 -12 -23 -35 -105 -59
-213 -6 -24 -11 -28 -34 -25 -25 3 -27 7 -28 48 -3 82 -3 85 -15 73 -6 -6 -12
-17 -13 -24 -1 -8 -9 -49 -16 -92 -12 -75 -14 -78 -44 -85 -17 -3 -35 -5 -41
-2 -5 2 -25 4 -44 4 -31 1 -34 4 -38 36 -7 58 -6 82 10 140 19 68 33 200 28
265 -1 17 -3 17 -11 5 -4 -9 -11 -56 -13 -106 -2 -50 -9 -99 -14 -110 -6 -10
-16 -44 -23 -74 -19 -89 -20 -90 -45 -90 -28 0 -56 25 -49 44 8 21 -9 26 -26
8 -8 -9 -14 -19 -13 -22 1 -3 -5 -20 -14 -38 -21 -44 -69 -63 -165 -66 -66 -1
-81 -5 -103 -26 -13 -13 -23 -25 -22 -27 2 -1 28 5 58 14 74 23 81 23 75 8 -7
-20 15 -24 101 -19 43 3 107 6 143 8 36 1 81 9 101 18 35 15 36 15 32 -3 -7
-24 4 -24 61 1 25 10 46 15 46 9 0 -15 83 -49 107 -45 11 3 38 9 59 15 60 17
61 14 19 -30 -40 -41 -40 -41 -97 -35 -39 4 -58 2 -58 -5 0 -7 -12 -9 -32 -5
-93 19 -99 19 -91 1 5 -16 2 -17 -23 -10 -16 5 -63 9 -104 10 -41 1 -89 5
-107 9 -21 5 -35 3 -44 -7 -10 -10 -24 -12 -54 -6 -30 6 -43 4 -51 -6 -11 -15
-24 -14 -87 3 -28 8 -39 7 -47 -3 -9 -11 -19 -11 -58 1 -63 19 -96 18 -88 -1
3 -8 4 -15 3 -15 -1 0 -18 5 -37 10 -19 6 -50 13 -68 16 -31 5 -33 4 -27 -15
8 -25 9 -25 -46 -5 -65 22 -123 26 -163 9 -48 -20 -59 -19 -51 5 5 16 2 20
-17 20 -13 -1 -34 -7 -48 -15 -27 -16 -74 -20 -66 -6 6 10 -141 7 -198 -5 -29
-5 -37 -4 -32 4 9 15 -23 15 -84 1 -31 -7 -46 -7 -48 0 -5 16 -44 13 -80 -5
-31 -15 -58 -12 -47 6 12 19 -18 21 -62 4 -44 -17 -46 -17 -59 0 -12 17 -16
18 -59 4 -35 -12 -45 -13 -45 -2 0 17 -20 22 -50 13 -62 -19 -80 -20 -74 -4 7
18 -8 24 -70 29 -34 2 -54 9 -63 22 -12 16 -11 19 4 25 12 4 23 0 33 -12 10
-13 34 -22 66 -25 44 -6 55 -3 73 15 15 15 27 19 39 13 22 -10 42 -9 67 5 11
6 29 8 40 5 11 -3 52 -5 91 -6 58 -1 76 3 93 18 14 13 21 15 21 6 0 -7 3 -11
6 -8 3 4 17 0 31 -7 29 -15 43 -12 43 10 0 15 34 9 65 -12 24 -16 46 -17 43
-1 -4 17 21 17 54 1 32 -15 52 -17 43 -4 -11 18 15 22 44 6 36 -18 55 -20 45
-3 -5 8 -2 9 10 5 41 -16 67 -19 79 -9 9 8 26 7 61 -3 46 -14 47 -14 41 6 -6
16 -3 19 17 17 13 -2 30 -8 38 -13 29 -18 105 -22 167 -7 32 7 43 7 47 -3 4
-10 15 -11 48 -3 81 18 100 18 94 1 -5 -12 -1 -14 16 -10 47 11 118 40 118 47
0 12 -189 5 -202 -8 -8 -8 -19 -7 -40 4 -32 16 -92 13 -128 -6 -11 -6 -20 -7
-20 -3 0 4 -5 2 -11 -4 -8 -8 -21 -8 -43 -2 -57 18 -90 21 -221 25 -71 2 -139
5 -150 7 -11 3 -25 0 -32 -5 -6 -5 -28 -6 -50 -2 -21 5 -42 7 -48 5 -5 -2 -14
-3 -20 -3 -5 0 -53 3 -106 6 -52 3 -107 10 -121 15 -23 9 -98 75 -98 86 0 2 9
28 21 57 20 51 47 135 54 167 2 9 8 28 14 44 6 15 8 27 5 27 -2 0 0 9 6 20 18
33 33 23 68 -44 45 -86 146 -166 210 -166 14 0 31 -18 56 -64 l36 -63 114 -5
c113 -4 116 -5 204 -50 l90 -46 56 23 c97 39 210 64 299 65 41 0 47 8 67 87
10 38 14 43 48 48 64 10 112 26 134 43 58 48 70 62 102 127 l35 70 -1 -40 c-1
-22 0 -76 2 -120 2 -75 3 -77 11 -35 4 25 8 78 8 118 1 69 3 76 31 102 18 17
28 34 24 43 -4 12 -12 9 -35 -16 l-30 -32 6 32 c4 20 1 40 -8 55 -8 13 -18 41
-23 63 -4 22 -8 42 -9 45 -1 3 -9 31 -19 64 l-18 58 39 42 c56 58 93 110 93
130 0 9 -20 38 -45 65 -69 74 -89 130 -86 244 1 34 5 40 36 53 19 8 35 19 35
24 0 13 -27 13 -35 0 -4 -6 -10 -8 -15 -5 -9 5 -2 43 10 60 4 6 11 25 15 44 4
18 16 52 26 76 11 24 21 56 23 73 4 35 42 89 76 108 28 15 110 19 110 5z
m1181 -29 c9 -33 8 -44 -7 -73 l-18 -34 -9 48 c-16 84 11 133 34 59z m-2491
18 c0 -5 -4 -10 -10 -10 -5 0 -10 5 -10 10 0 6 5 10 10 10 6 0 10 -4 10 -10z
m420 -11 c19 -12 44 -30 54 -41 17 -19 28 -20 110 -14 71 4 94 10 106 24 19
22 69 43 95 40 23 -4 87 -41 129 -75 15 -13 44 -30 62 -38 42 -17 50 -36 33
-78 -8 -17 -14 -34 -15 -37 0 -3 -8 -22 -17 -42 -18 -40 -24 -106 -7 -77 5 8
21 51 35 94 14 43 30 84 35 90 11 13 -22 65 -41 65 -9 0 -109 69 -109 76 0 9
38 -12 65 -36 17 -15 46 -33 65 -40 56 -21 63 -29 47 -54 -18 -28 -58 -136
-51 -136 4 0 1 -6 -5 -13 -6 -8 -9 -16 -6 -19 3 -3 -1 -22 -8 -44 -7 -21 -12
-48 -10 -59 1 -11 5 -38 9 -60 3 -22 6 -48 5 -58 0 -32 48 -122 84 -157 l34
-33 -31 -39 c-16 -21 -48 -58 -69 -80 -45 -48 -46 -53 -20 -111 40 -87 53
-251 26 -319 -30 -74 -117 -144 -191 -152 -28 -3 -33 -2 -19 4 11 5 43 19 70
31 28 12 53 21 58 21 4 -1 7 2 7 7 0 5 12 23 26 40 14 17 23 31 20 31 -4 0 1
14 10 31 12 24 15 49 11 108 -7 95 -11 112 -42 190 -28 68 -28 68 25 122 65
67 90 97 90 107 0 8 -23 40 -80 110 -6 6 -8 12 -5 12 3 0 -1 13 -9 29 -22 41
-30 87 -29 159 1 72 -12 85 -16 15 -1 -26 -4 -50 -7 -55 -9 -14 37 -162 55
-179 10 -10 28 -33 40 -53 l22 -36 -27 -35 c-14 -19 -29 -35 -33 -35 -4 0 -20
-18 -37 -40 l-31 -40 29 -112 c29 -113 40 -198 27 -198 -5 0 -14 8 -21 18 -7
10 -30 28 -50 41 -21 12 -38 28 -38 33 0 6 -3 9 -6 5 -3 -3 -13 1 -22 8 -10 8
-66 51 -127 95 -60 45 -125 93 -144 108 -19 15 -46 34 -60 43 -48 29 -55 45
-32 70 12 13 21 27 21 32 0 12 -50 55 -72 63 -24 7 -23 25 3 58 26 33 35 33
107 -4 68 -35 87 -37 101 -13 15 27 22 11 11 -27 -5 -18 -7 -37 -3 -43 3 -5
-1 -13 -8 -18 -12 -8 -12 -11 1 -19 9 -6 10 -10 3 -10 -8 0 -11 -14 -8 -42 2
-24 4 -45 6 -48 1 -3 1 -8 0 -12 0 -5 4 -8 11 -8 6 0 9 -3 5 -6 -3 -4 1 -20 9
-36 l15 -29 102 3 102 3 13 40 c8 22 15 54 16 71 1 16 6 36 11 44 5 9 4 11 -4
6 -8 -5 -10 0 -8 16 3 13 -3 52 -12 88 l-17 65 -98 5 c-54 3 -104 1 -111 -3
-8 -4 26 55 75 132 50 77 90 144 90 149 0 6 4 12 8 14 12 5 101 161 97 169 -5
7 -138 77 -173 90 -21 8 -29 -1 -100 -110 -74 -112 -79 -118 -97 -104 -33 25
-98 53 -129 55 -20 2 -36 14 -59 46 -18 24 -44 50 -59 58 -27 14 -138 22 -155
11 -10 -6 -40 9 -32 17 2 3 17 7 33 10 24 4 66 32 86 57 19 24 109 22 150 -2z
m2000 -11 c19 -55 22 -98 6 -92 -14 5 -34 45 -37 74 -6 56 13 67 31 18z
m-2610 2 c-14 -11 -43 -32 -65 -46 l-40 -26 24 26 c14 14 29 26 34 26 5 0 20
9 34 20 14 11 28 20 32 20 3 0 -5 -9 -19 -20z m-1429 -31 c-11 -13 -21 -26
-21 -29 0 -6 -44 -30 -55 -30 -11 0 30 62 53 79 34 25 51 10 23 -20z m1609 8
c29 -17 60 -27 86 -27 30 0 45 -6 55 -20 12 -16 27 -20 96 -21 90 -2 137 -21
152 -62 10 -27 -9 -59 -45 -75 -42 -20 -49 -15 -52 35 -3 56 -18 78 -27 40 -4
-14 -13 -28 -20 -31 -14 -5 -37 15 -34 30 5 32 -11 22 -44 -26 -10 -14 -17
-18 -17 -10 0 7 -10 29 -22 47 -18 27 -29 33 -52 31 -32 -3 -38 15 -6 20 11 2
20 8 20 13 0 15 -46 10 -60 -6 -18 -21 -3 -55 25 -55 42 0 55 -10 55 -45 0
-40 31 -56 58 -32 14 12 52 16 81 8 2 -1 -2 -7 -8 -15 -15 -18 6 -35 52 -43
28 -4 42 0 64 17 l28 22 30 -34 c32 -37 128 -91 141 -80 3 4 2 -2 -4 -14 -6
-11 -18 -26 -26 -34 -9 -7 -16 -16 -16 -21 0 -6 -102 -164 -114 -176 -2 -2
-15 1 -29 6 -23 9 -29 6 -51 -19 -14 -17 -29 -30 -35 -30 -9 0 -61 46 -61 54
0 2 25 30 55 62 30 33 55 66 55 75 0 8 -15 27 -33 42 -18 14 -47 39 -63 54
-17 15 -41 37 -55 48 -87 72 -286 241 -297 252 -7 7 -18 13 -23 13 -5 0 -46
-35 -89 -78 -67 -66 -78 -81 -67 -94 11 -14 118 -107 223 -194 141 -119 299
-256 302 -264 2 -5 -8 -19 -22 -31 -20 -18 -23 -25 -14 -44 5 -12 23 -29 38
-39 18 -10 27 -22 24 -31 -6 -14 -50 6 -141 61 -38 24 -52 16 -99 -58 -26 -40
-77 -117 -113 -171 -36 -55 -70 -106 -76 -115 -5 -10 -25 -38 -42 -63 -18 -25
-36 -57 -41 -70 l-9 -23 -13 24 c-15 27 -16 145 -2 163 5 7 12 26 16 42 4 17
19 54 34 84 l26 54 -54 49 c-29 26 -57 48 -61 48 -5 0 -13 9 -19 21 -10 17 -6
31 20 81 19 38 27 65 22 70 -6 6 -17 -8 -27 -36 -10 -25 -21 -46 -26 -46 -5 0
-15 -13 -23 -29 -14 -26 -13 -30 3 -47 25 -26 65 -60 94 -79 37 -24 38 -46 6
-111 -68 -141 -64 -260 14 -371 20 -28 76 -61 132 -76 11 -3 0 -3 -25 0 -73 9
-114 41 -153 119 -34 69 -40 146 -17 235 10 40 23 75 27 78 17 11 35 69 28 90
-3 11 -15 23 -26 26 -21 7 -82 65 -106 102 -13 19 -12 25 4 50 10 15 28 39 40
53 12 13 27 49 33 80 16 78 20 90 31 90 6 0 8 -3 6 -7 -11 -18 -16 -83 -7 -83
20 0 28 45 24 130 -3 93 -6 116 -17 126 -4 4 -7 15 -7 24 0 9 -11 45 -25 79
-14 34 -23 66 -20 71 5 8 112 80 200 135 30 19 85 11 135 -18z m55 3 c3 -5 2
-10 -4 -10 -5 0 -13 5 -16 10 -3 6 -2 10 4 10 5 0 13 -4 16 -10z m584 -1 c-8
-5 -30 -8 -49 -8 -42 1 -16 14 31 15 22 1 27 -1 18 -7z m1666 -8 c3 -5 2 -12
-3 -15 -5 -3 -9 1 -9 9 0 17 3 19 12 6z m59 -6 c23 -18 56 -65 56 -82 0 -20
-65 24 -78 53 -21 45 -13 56 22 29z m-20 -63 c6 -7 16 -18 22 -25 9 -10 8 -18
-2 -32 -21 -28 -17 -63 12 -113 24 -41 26 -49 15 -78 -8 -22 -9 -39 -3 -51 6
-10 10 -22 10 -28 0 -5 6 -26 12 -45 8 -25 9 -43 1 -63 -13 -34 -34 -31 -36 5
-1 14 -5 33 -8 42 -4 9 -2 16 4 16 6 0 7 4 4 10 -3 5 -8 31 -10 57 -3 26 -7
62 -10 78 -2 17 -7 48 -11 70 -3 22 -12 71 -20 108 -18 86 -18 110 -2 82 6
-11 16 -26 22 -33z m-1520 19 c3 -4 -4 -17 -14 -31 -16 -22 -19 -22 -34 -8
-19 19 -20 30 -5 45 11 11 46 7 53 -6z m-1998 -75 c-1 -41 -4 -77 -7 -80 -3
-3 -12 6 -19 22 -8 15 -24 41 -37 59 -22 30 -22 32 -4 38 10 3 26 14 36 25 10
11 21 18 25 15 3 -2 6 -38 6 -79z m1050 59 c12 -11 12 -19 4 -35 -13 -24 -23
-25 -44 -4 -21 20 -20 31 2 43 22 13 21 13 38 -4z m-1636 -15 c0 -5 -7 -7 -15
-4 -8 4 -12 10 -9 15 6 11 24 2 24 -11z m1425 10 c-3 -5 -12 -10 -18 -10 -7 0
-6 4 3 10 19 12 23 12 15 0z m-36 -42 c0 -31 -1 -31 -10 -10 -5 13 -7 28 -3
33 10 16 14 9 13 -23z m1270 18 c9 -11 9 -19 -1 -35 -15 -25 -18 -25 -42 -8
-15 11 -17 17 -7 35 13 25 33 28 50 8z m-2539 -10 c0 -2 -7 -6 -15 -10 -8 -3
-15 -1 -15 4 0 6 7 10 15 10 8 0 15 -2 15 -4z m1589 -58 c-12 -22 -37 -20 -53
4 -8 14 -6 21 9 32 18 13 22 13 37 -1 13 -12 15 -20 7 -35z m805 39 c15 -11
17 -17 7 -35 -14 -25 -19 -26 -44 -8 -16 12 -16 17 -5 35 15 25 18 25 42 8z
m-2485 -39 c-4 -62 -27 -128 -44 -122 -14 6 -14 49 0 89 6 16 5 17 -4 5 -6 -8
-11 -11 -11 -6 0 10 48 76 56 76 3 0 4 -19 3 -42z m46 32 c3 -5 1 -10 -4 -10
-6 0 -11 5 -11 10 0 6 2 10 4 10 3 0 8 -4 11 -10z m1496 -49 c-11 -20 -13 -20
-36 -5 -30 19 -30 22 -8 46 16 18 17 18 36 0 16 -16 17 -23 8 -41z m2599 49
c0 -5 -5 -10 -11 -10 -5 0 -7 5 -4 10 3 6 8 10 11 10 2 0 4 -4 4 -10z m77 -79
c3 -34 1 -61 -4 -61 -14 0 -35 85 -27 114 10 42 26 16 31 -53z m-4287 -15 c-1
-56 -2 -59 -15 -42 -9 12 -15 42 -15 74 0 47 2 53 15 42 10 -9 15 -31 15 -74z
m154 62 c-5 -7 -9 -15 -9 -18 -2 -15 -36 -68 -54 -84 -21 -19 -21 -19 -21 12
0 18 4 32 9 32 5 0 12 11 15 25 3 13 19 31 34 39 30 16 38 14 26 -6z m1248
-33 c71 -182 70 -355 -1 -419 -30 -27 -41 -11 -45 65 -2 35 -7 93 -11 129 -4
39 -2 89 5 125 6 33 13 80 15 105 1 25 3 47 4 50 2 9 18 -17 33 -55z m1248 1
c-1 -27 -17 -38 -39 -27 -25 14 -26 24 -5 46 12 12 19 13 30 4 8 -6 14 -17 14
-23z m1589 -37 c12 -28 20 -53 16 -57 -10 -11 -39 13 -56 46 -9 18 -22 38 -28
46 -9 11 -9 15 1 18 27 9 44 -5 67 -53z m-2405 28 c8 -13 7 -21 -6 -34 -16
-16 -19 -16 -38 2 -19 17 -19 19 -3 36 21 20 32 20 47 -4z m-146 -10 c2 -10
-2 -25 -9 -33 -10 -13 -15 -12 -36 8 -23 21 -23 23 -6 36 23 16 47 12 51 -11z
m821 11 c16 -9 17 -16 8 -35 -12 -26 -29 -30 -46 -9 -9 11 -9 19 1 35 15 25
13 24 37 9z m1177 -58 c10 -27 14 -129 5 -135 -5 -3 -16 -2 -25 1 -13 5 -15
20 -12 88 5 90 19 144 24 91 2 -16 5 -37 8 -45z m-2825 -70 c2 -48 -6 -82 -37
-170 -28 -80 -27 -67 -9 -395 6 -113 36 -239 67 -283 16 -24 27 -49 24 -57 -7
-20 3 -45 19 -45 7 0 15 -20 19 -52 4 -28 20 -88 35 -132 22 -62 26 -87 19
-106 -5 -14 -11 -33 -14 -44 -5 -24 -2 -23 -57 -28 -45 -5 -48 -4 -69 31 -12
20 -25 38 -28 41 -3 3 -17 21 -30 40 -13 19 -28 38 -33 41 -5 3 -8 8 -6 10 1
2 -21 51 -48 109 -28 58 -56 123 -64 145 -7 22 -17 45 -22 52 -6 9 -3 9 17 0
14 -7 26 -16 26 -20 0 -16 39 29 50 57 13 36 3 95 -22 122 -23 26 -26 65 -32
417 -4 225 -3 267 8 258 8 -7 27 -13 44 -15 32 -5 55 14 102 83 l24 35 8 -30
c4 -16 8 -45 9 -64z m1051 67 c15 -12 15 -15 -2 -36 l-17 -24 -21 21 c-18 18
-19 21 -4 36 19 19 22 19 44 3z m682 0 c17 -12 17 -14 -1 -35 -16 -19 -20 -20
-36 -8 -15 12 -16 18 -7 35 13 24 20 26 44 8z m-825 -11 c9 -11 9 -19 -1 -35
-16 -26 -19 -26 -41 0 -14 16 -16 24 -6 35 15 18 33 18 48 0z m-882 -38 c-3
-7 -5 -2 -5 12 0 14 2 19 5 13 2 -7 2 -19 0 -25z m612 -27 c1 -35 -5 -22 -12
24 -5 28 -4 34 3 20 5 -11 9 -31 9 -44z m955 53 c20 -8 21 -38 0 -54 -12 -11
-18 -11 -30 2 -13 12 -14 20 -5 37 13 23 13 23 35 15z m-2464 -48 c-12 -12
-30 8 -30 33 0 11 5 10 20 -4 15 -13 17 -22 10 -29z m2009 -3 c2 -1 -4 -9 -13
-18 -12 -12 -20 -14 -36 -5 -23 13 -24 14 -8 40 12 18 13 18 33 2 11 -9 22
-18 24 -19z m1779 21 c-3 -3 0 -24 7 -47 20 -67 8 -507 -15 -529 -1 -2 -4 -12
-6 -23 -16 -96 -49 -219 -68 -260 -13 -27 -39 -84 -57 -125 -18 -41 -51 -104
-73 -140 -22 -36 -44 -74 -50 -85 -32 -57 -82 -115 -99 -115 -13 0 -17 5 -13
18 3 9 7 35 11 57 3 22 14 52 25 67 11 15 20 29 20 32 0 2 22 40 48 83 43 69
130 233 153 288 4 11 20 47 34 79 26 59 39 110 49 199 3 25 9 63 13 84 7 39 7
188 0 328 -2 50 0 83 7 87 13 9 22 10 14 2z m-1934 -26 c7 -12 6 -21 -3 -32
-18 -21 -24 -20 -39 5 -10 16 -11 24 -1 35 14 17 28 14 43 -8z m2470 -59 c1
-29 -4 -54 -9 -56 -15 -5 -35 76 -28 110 5 26 7 27 21 13 10 -10 16 -34 16
-67z m-4244 61 c0 -5 -2 -10 -4 -10 -3 0 -8 5 -11 10 -3 6 -1 10 4 10 6 0 11
-4 11 -10z m845 0 c3 -5 2 -10 -4 -10 -5 0 -13 5 -16 10 -3 6 -2 10 4 10 5 0
13 -4 16 -10z m1629 -3 c15 -11 17 -17 7 -35 -13 -25 -33 -28 -50 -8 -9 11 -9
19 1 35 15 25 18 25 42 8z m1846 -34 c0 -19 -37 -90 -51 -99 -9 -5 -10 9 -7
49 5 64 23 94 44 76 8 -6 14 -18 14 -26z m-150 -1 c19 -17 45 -112 31 -112 -7
0 -32 27 -45 49 -14 23 -25 81 -15 81 6 0 19 -8 29 -18z m-2730 4 c0 -3 -4 -8
-10 -11 -5 -3 -10 -1 -10 4 0 6 5 11 10 11 6 0 10 -2 10 -4z m541 -6 c23 -13
24 -24 3 -45 -15 -15 -18 -15 -35 1 -15 13 -16 20 -6 35 14 22 13 22 38 9z
m-130 -53 c-18 -18 -21 -19 -35 -4 -19 19 -20 29 -5 44 9 9 18 8 36 -4 24 -16
24 -16 4 -36z m488 39 c9 -11 9 -19 0 -34 -12 -18 -15 -19 -36 -5 -18 12 -21
19 -12 34 12 23 32 25 48 5z m-1224 -17 c6 -4 26 -5 45 -1 19 4 42 6 50 6 8
-1 21 -2 28 -3 6 0 12 -4 12 -8 0 -5 -37 -9 -83 -11 -45 -2 -83 -7 -85 -13 -2
-5 -8 -9 -13 -9 -6 0 -8 4 -5 9 3 4 -8 8 -23 7 -16 -1 -27 -4 -24 -8 2 -5 -1
-8 -6 -8 -6 0 -11 5 -11 11 0 5 -5 7 -11 4 -6 -4 -8 -13 -6 -19 4 -10 -9 -10
-64 -1 -38 7 -70 10 -72 8 -2 -1 -4 3 -4 11 0 7 5 13 11 13 37 -1 89 4 85 7
-2 2 -26 7 -54 11 -27 3 -51 8 -53 10 -8 8 273 -8 283 -16z m325 -15 c0 -8 -4
-12 -10 -9 -5 3 -10 13 -10 21 0 8 5 12 10 9 6 -3 10 -13 10 -21z m984 -20 c8
-21 -12 -56 -27 -48 -34 20 -37 25 -21 49 16 25 38 24 48 -1z m663 0 c-3 -4
-14 -3 -24 0 -15 6 -15 8 -3 16 16 10 39 -4 27 -16z m74 6 c-13 -11 -22 -20
-20 -21 2 0 48 -2 101 -3 53 -1 100 -5 104 -9 9 -8 -25 -10 -127 -7 -51 1 -79
-2 -84 -10 -6 -9 -9 -9 -15 0 -5 8 -17 9 -42 2 -20 -5 -41 -6 -48 -2 -16 10
-1 18 30 15 38 -3 69 14 65 36 -3 15 2 19 28 19 l32 -1 -24 -19z m479 -5 c4
-11 6 -72 4 -135 -2 -103 -6 -151 -18 -230 -20 -134 -129 -404 -224 -555 -32
-51 -39 -51 -23 1 5 16 14 49 21 74 7 25 19 63 25 85 7 22 16 56 19 75 9 57
36 182 41 190 3 4 7 27 10 50 3 24 7 46 9 49 2 3 7 31 10 62 4 31 8 66 11 77
2 11 7 42 11 69 5 26 9 50 9 53 1 3 8 40 15 83 14 76 14 77 43 75 19 -2 32
-10 37 -23z m-1700 -31 c0 -2 -7 -12 -16 -23 -16 -18 -18 -18 -36 -1 -17 15
-18 21 -7 38 12 18 14 19 36 5 13 -8 23 -17 23 -19z m360 -4 c-1 -3 -6 -15
-14 -28 l-12 -23 -25 19 c-23 20 -23 21 -5 40 15 17 21 19 37 9 10 -6 19 -14
19 -17z m-1435 5 c17 -4 44 -8 61 -9 48 -5 54 -11 43 -54 -18 -66 -16 -65 -58
-36 -22 14 -57 32 -78 39 -46 16 -62 37 -44 59 8 9 21 14 30 12 9 -3 30 -8 46
-11z m398 -32 c7 -36 3 -40 -36 -48 -17 -4 -38 -12 -44 -17 -7 -6 -13 -7 -13
-4 0 4 -9 2 -20 -4 -15 -8 -21 -8 -24 2 -1 7 -8 27 -13 45 -14 40 -5 49 62 61
60 10 81 2 88 -35z m-1368 7 c-3 -5 -11 -10 -16 -10 -6 0 -7 5 -4 10 3 6 11
10 16 10 6 0 7 -4 4 -10z m1190 -35 c9 -25 21 -45 26 -45 5 0 9 -7 9 -16 0 -8
4 -13 8 -10 10 6 54 16 99 22 30 4 33 2 43 -36 7 -26 7 -46 1 -58 -10 -19 11
-82 27 -82 17 0 39 -63 42 -120 7 -113 3 -216 -10 -245 -7 -16 -13 -34 -12
-40 1 -5 -10 -15 -23 -22 -21 -9 -25 -9 -23 2 2 8 0 14 -4 14 -26 3 -38 0 -50
-11 -23 -22 -33 -18 -82 25 -39 35 -47 49 -50 84 -3 32 -1 40 10 36 7 -3 13
-8 12 -11 -3 -14 36 -81 50 -87 25 -9 28 6 5 24 -12 10 -28 42 -37 71 -19 63
-19 63 -6 55 17 -10 11 9 -14 45 -25 37 -27 100 -4 127 8 10 6 13 -5 13 -10 0
-18 -13 -23 -35 -3 -19 -9 -35 -13 -35 -10 0 -47 52 -55 78 -6 18 -26 32 -26
18 0 -9 44 -102 50 -106 26 -18 39 -73 38 -163 l0 -96 -44 -22 c-24 -11 -44
-26 -44 -32 0 -7 -5 -5 -10 3 -12 22 -76 25 -88 5 -7 -14 -13 -12 -40 13 -39
37 -55 114 -26 130 13 7 17 22 17 58 -1 65 -7 104 -14 104 -4 0 -9 14 -13 31
-3 17 -10 28 -15 25 -10 -7 -7 -46 14 -168 3 -16 1 -28 -4 -28 -4 0 -11 26
-15 58 -4 31 -9 71 -11 87 -18 118 -25 264 -13 271 4 3 6 9 4 13 -3 4 -1 13 5
21 7 12 9 10 9 -8 0 -13 4 -20 10 -17 6 3 10 15 10 26 0 16 5 18 27 14 25 -4
62 -39 63 -58 0 -5 9 -22 21 -38 21 -30 63 -41 53 -14 -4 8 -11 12 -16 9 -6
-4 -14 0 -19 7 -14 22 -10 32 10 26 27 -7 43 7 46 39 3 37 15 77 26 84 4 3 19
6 32 8 20 1 27 -6 42 -43z m-1070 25 c-3 -5 -11 -10 -16 -10 -6 0 -7 5 -4 10
3 6 11 10 16 10 6 0 7 -4 4 -10z m2365 -26 c0 -11 -21 -44 -28 -44 -4 0 -15 7
-25 14 -17 14 -18 15 -1 35 13 15 22 18 36 10 10 -5 18 -12 18 -15z m1872 -1
c2 -10 0 -38 -4 -62 -4 -24 -5 -47 -2 -52 3 -5 -2 -6 -10 -3 -16 6 -33 104
-21 123 10 17 33 13 37 -6z m-4360 -15 c15 -13 32 -128 18 -128 -13 0 -37 56
-36 83 1 16 -2 31 -6 33 -10 7 -10 24 0 24 5 0 15 -6 24 -12z m74 -50 c0 -30
-3 -63 -6 -73 -6 -16 -7 -16 -23 -1 -20 20 -22 59 -6 105 17 48 34 32 35 -31z
m71 19 c-4 -43 -31 -97 -48 -97 -5 0 -6 21 -4 48 2 26 4 52 5 58 0 9 29 29 48
33 1 1 1 -19 -1 -42z m4279 8 c0 -19 -5 -35 -10 -35 -5 0 -7 -3 -3 -6 3 -3 1
-11 -4 -18 -5 -6 -16 -20 -25 -31 -14 -18 -15 -16 -9 35 8 77 54 126 51 55z
m-138 6 c15 -9 34 -80 25 -94 -3 -4 -17 5 -32 22 -23 25 -30 53 -22 79 2 5 16
1 29 -7z m-2079 -68 c-9 -10 -15 -10 -25 -2 -17 14 -18 36 -1 42 19 7 39 -23
26 -40z m2039 -5 c8 -29 7 -40 -4 -49 -8 -6 -14 -18 -14 -25 0 -8 -4 -14 -9
-14 -6 0 -8 76 -2 135 2 18 19 -10 29 -47z m-1712 16 c-4 -9 -9 -15 -11 -12
-3 3 -3 13 1 22 4 9 9 15 11 12 3 -3 3 -13 -1 -22z m41 6 c1 -11 -4 -20 -12
-20 -8 0 -11 7 -8 20 3 11 8 20 12 20 4 0 7 -9 8 -20z m51 -3 c2 -11 -3 -17
-16 -17 -15 0 -19 5 -15 20 6 24 26 21 31 -3z m45 17 c8 -8 -3 -34 -14 -34 -5
0 -9 9 -9 20 0 19 11 26 23 14z m33 -19 c1 -8 -2 -15 -7 -15 -5 0 -9 10 -9 22
0 23 12 17 16 -7z m44 -6 c0 -11 -4 -17 -10 -14 -5 3 -10 15 -10 26 0 11 5 17
10 14 6 -3 10 -15 10 -26z m-124 -86 c0 -27 -4 -47 -8 -45 -5 1 -12 2 -18 2
-15 0 -12 87 3 93 21 7 24 -1 23 -50z m54 2 c0 -44 -3 -53 -15 -49 -10 4 -15
20 -15 49 0 37 5 47 28 54 1 1 2 -24 2 -54z m-552 16 c-2 -11 -12 -15 -28 -13
-38 5 -47 20 -19 30 30 12 51 4 47 -17z m82 3 c0 -16 -35 -19 -45 -5 -6 11 26
32 37 25 5 -3 8 -12 8 -20z m104 6 c7 -7 6 -14 -2 -22 -7 -7 -12 -8 -12 -4 0
5 -6 3 -14 -3 -17 -14 -41 11 -33 33 6 16 43 14 61 -4z m212 -67 c-3 -8 -11
-11 -17 -7 -8 4 -7 9 2 15 11 7 11 9 1 9 -10 0 -10 5 -1 23 7 12 12 23 11 25
-1 1 -1 8 0 15 1 6 3 -5 5 -27 3 -21 2 -45 -1 -53z m41 42 c0 -25 -4 -45 -9
-45 -4 0 -8 20 -8 45 0 25 4 45 9 45 5 0 9 -20 8 -45z m149 -6 c0 -21 -3 -39
-8 -39 -4 0 -8 21 -8 47 0 25 3 43 8 39 4 -4 7 -25 8 -47z m46 6 c2 -29 -1
-46 -9 -50 -9 -3 -13 10 -13 45 0 62 17 66 22 5z m-2742 -10 c0 -8 -2 -15 -4
-15 -2 0 -6 7 -10 15 -3 8 -1 15 4 15 6 0 10 -7 10 -15z m4336 -31 c1 -21 -4
-45 -10 -53 -6 -8 -10 -17 -10 -20 1 -3 -1 -12 -4 -19 -9 -24 -22 9 -22 56 0
80 44 115 46 36z m-76 10 c19 -21 23 -124 5 -124 -15 0 -45 69 -45 104 0 37
18 47 40 20z m-4186 -10 c8 -20 8 -108 0 -128 -8 -20 -24 -21 -24 -1 0 8 -4
15 -8 15 -7 0 -9 81 -3 123 2 14 29 7 35 -9z m4136 6 c0 -5 -4 -10 -10 -10 -5
0 -10 5 -10 10 0 6 5 10 10 10 6 0 10 -4 10 -10z m194 -5 c3 -8 0 -15 -5 -15
-6 0 -9 -9 -6 -19 3 -13 -3 -23 -19 -32 -13 -7 -24 -16 -24 -21 0 -5 -4 -7 -9
-3 -6 3 -5 18 3 38 7 17 16 40 19 50 8 21 33 22 41 2z m-4237 -8 c4 -4 8 -18
10 -30 2 -12 10 -56 18 -99 21 -110 29 -198 18 -198 -17 0 -33 24 -33 50 0 19
-3 22 -9 10 -6 -8 -8 -17 -6 -20 1 -3 -3 -11 -11 -17 -17 -16 -20 -9 -22 47
-1 27 4 53 13 64 15 20 15 20 30 0 14 -19 14 -19 15 3 0 31 -10 53 -25 53 -21
0 -29 20 -28 65 l1 40 -12 -38 c-6 -21 -16 -34 -20 -30 -5 4 -6 0 -3 -9 4 -10
2 -18 -4 -18 -12 0 -8 52 6 62 6 5 4 8 -5 8 -13 0 -13 1 0 10 10 6 11 10 3 10
-7 0 -13 5 -13 11 0 5 5 7 12 3 7 -5 8 -3 3 6 -14 23 40 38 62 17z m1783 -2
c10 -13 10 -19 -5 -35 -14 -15 -20 -17 -36 -7 -22 14 -24 28 -7 45 16 16 33
15 48 -3z m244 -7 c-9 -30 -10 -32 -29 -25 -8 4 -15 16 -15 27 0 15 7 20 26
20 22 0 24 -3 18 -22z m2022 -34 c10 -31 9 -39 -11 -62 -12 -15 -25 -34 -28
-42 -3 -8 -3 10 0 40 4 30 7 65 7 78 0 34 20 26 32 -14z m-1943 3 c3 -7 -20
-39 -50 -71 -66 -72 -66 -89 2 -133 28 -18 55 -37 62 -42 12 -11 77 -57 123
-89 14 -9 75 -53 135 -97 61 -45 118 -84 127 -88 12 -4 25 4 43 26 15 18 33
41 42 51 9 11 24 34 35 53 30 51 40 39 17 -19 -33 -87 -96 -134 -189 -143 -36
-4 -68 -9 -72 -11 -4 -3 -15 -31 -24 -62 -9 -31 -18 -58 -19 -60 -4 -5 -46
-10 -127 -16 -51 -4 -91 -13 -120 -28 -53 -28 -99 -28 -158 -1 -66 29 -77 33
-133 38 -145 15 -135 11 -179 80 -36 56 -46 65 -87 76 -25 7 -50 11 -54 11
-18 -5 -97 75 -97 97 1 12 5 11 20 -8 11 -13 20 -20 20 -16 0 3 13 -3 29 -14
16 -12 32 -21 35 -21 4 0 25 -12 47 -27 l41 -27 19 24 c11 14 23 30 29 37 8 9
56 82 95 141 6 9 36 54 68 101 32 47 79 118 104 156 26 39 47 71 49 73 1 2 19
-9 39 -23 l38 -25 16 22 c27 39 35 47 52 48 9 0 19 -6 22 -13z m279 -36 c-4
-10 -8 -8 -14 8 -4 13 -5 28 -1 34 9 14 22 -23 15 -42z m54 22 c7 -44 -22 -37
-31 8 -3 14 0 19 12 17 9 -2 18 -13 19 -25z m52 5 c-5 -32 -28 -35 -28 -4 0
17 5 26 16 26 10 0 14 -7 12 -22z m23 -25 c-9 -15 -10 -14 -7 7 8 44 8 45 13
28 2 -10 0 -25 -6 -35z m51 22 c-2 -14 -8 -28 -13 -31 -10 -6 -11 2 -3 34 9
30 22 28 16 -3z m-708 2 c15 -11 17 -17 7 -35 -13 -25 -33 -28 -50 -8 -9 11
-10 20 -1 35 13 25 20 26 44 8z m-529 -48 c4 -10 1 -35 -6 -54 -18 -48 -39
-28 -39 35 0 43 2 48 20 43 10 -3 22 -14 25 -24z m404 17 c9 -10 7 -18 -6 -34
-16 -19 -20 -20 -36 -7 -13 9 -17 20 -12 34 7 24 37 28 54 7z m465 -41 c-8
-21 -36 -27 -52 -12 -11 12 -11 18 -1 35 12 18 15 19 35 5 13 -8 20 -21 18
-28z m1772 9 c-3 -9 -6 -20 -6 -26 0 -6 -6 -5 -15 2 -12 10 -13 16 -4 26 16
19 33 18 25 -2z m-2167 -13 c9 -6 11 -18 7 -35 -7 -27 -21 -32 -45 -17 -12 8
-13 14 -3 35 12 28 19 31 41 17z m2391 -1 c0 -5 -5 -10 -11 -10 -5 0 -7 5 -4
10 3 6 8 10 11 10 2 0 4 -4 4 -10z m-2521 -61 c-11 -22 -22 -23 -50 -9 -19 10
-19 12 -2 34 16 21 20 22 40 9 18 -12 21 -19 12 -34z m584 37 c21 -16 22 -30
3 -45 -11 -9 -19 -9 -34 0 -17 10 -18 17 -9 36 12 26 16 27 40 9z m1882 -58
c-4 -23 -11 -50 -16 -60 -12 -22 -31 -24 -23 -3 4 8 1 15 -5 15 -13 0 -7 35
16 90 12 30 16 33 24 18 6 -10 7 -37 4 -60z m-64 27 c1 -23 1 -104 -1 -117 -2
-23 -29 52 -32 87 -1 19 -6 35 -10 35 -4 0 -5 7 -2 15 7 18 44 2 45 -20z
m-1931 -5 c-1 -3 -7 -13 -14 -23 -12 -15 -18 -16 -35 -7 -24 12 -25 15 -11 40
8 15 13 16 35 7 14 -7 25 -14 25 -17z m-392 -55 c-9 -20 -14 -22 -34 -13 -28
13 -29 17 -8 46 15 22 17 22 34 7 15 -14 17 -21 8 -40z m-1877 8 c19 -23 51
-93 42 -93 -4 0 -22 10 -40 23 -31 21 -66 83 -56 100 6 9 34 -6 54 -30z m66 6
c16 -33 23 -88 12 -94 -14 -9 -49 57 -49 93 0 39 18 39 37 1z m2407 16 c13
-13 13 -20 3 -35 -14 -24 -18 -24 -41 -7 -13 10 -16 20 -12 35 9 26 28 28 50
7z m1436 -10 c0 -28 -21 -41 -43 -28 -21 12 -3 53 23 53 15 0 20 -7 20 -25z
m240 -38 c7 -32 5 -37 -23 -57 l-30 -23 7 34 c4 19 10 49 13 67 7 39 21 30 33
-21z m-1819 -10 c-20 -20 -21 -20 -41 -2 -19 17 -19 20 -4 36 15 17 18 17 41
2 l24 -16 -20 -20z m-593 30 c7 -8 7 -17 -2 -30 -16 -21 -30 -22 -46 -2 -10
12 -10 18 0 30 15 18 34 19 48 2z m822 -48 c0 -30 -23 -39 -47 -19 -21 16 -21
19 -5 38 13 16 19 18 34 8 10 -6 18 -18 18 -27z m-1899 0 c14 -27 19 -69 8
-69 -5 0 -9 -7 -9 -15 0 -8 -6 -15 -14 -15 -18 0 -29 61 -16 94 12 32 16 32
31 5z m1753 -6 c6 -15 -9 -43 -23 -43 -4 0 -16 6 -26 14 -19 14 -19 15 -1 34
19 22 41 20 50 -5z m-600 1 c12 -12 13 -20 6 -35 -12 -22 -14 -23 -39 -7 -16
9 -17 16 -8 35 12 27 20 29 41 7z m-134 -45 c0 -6 -5 -19 -10 -30 -10 -18 -12
-18 -35 -3 -24 15 -24 17 -7 39 13 17 21 21 35 14 9 -6 17 -14 17 -20z m959 7
c15 -17 -3 -60 -21 -54 -23 8 -32 36 -19 52 17 20 25 20 40 2z m-141 -40 c-4
-25 -27 -31 -52 -13 -18 13 -18 14 4 35 18 17 26 19 37 10 8 -6 13 -21 11 -32z
m-2348 30 c0 -3 -4 -8 -10 -11 -5 -3 -10 -1 -10 4 0 6 5 11 10 11 6 0 10 -2
10 -4z m4078 -50 c1 -25 -2 -48 -8 -51 -5 -3 -10 -14 -10 -24 0 -10 -6 -24
-14 -30 -17 -15 -24 8 -20 68 2 38 26 81 44 81 4 0 8 -20 8 -44z m-4004 -57
c26 -75 20 -93 -21 -64 -20 14 -25 57 -9 84 4 6 2 11 -3 11 -6 0 -11 -6 -12
-12 -1 -16 -6 -45 -14 -75 -7 -28 -25 -21 -25 8 0 14 -4 18 -12 13 -9 -5 -9
-2 1 9 7 9 9 17 4 17 -20 0 -8 61 16 80 24 18 25 17 42 -5 10 -12 25 -42 33
-66z m1528 65 c16 -8 16 -11 -2 -33 -17 -23 -19 -24 -35 -7 -15 15 -16 21 -5
42 8 13 16 21 19 16 3 -5 14 -13 23 -18z m2394 14 c4 -6 8 -42 9 -79 1 -49 -1
-66 -10 -63 -13 5 -35 69 -35 102 0 44 20 66 36 40z m-1422 -21 c16 -12 16
-14 -4 -36 -20 -24 -21 -24 -35 -5 -32 42 -4 72 39 41z m1571 3 c-3 -5 -8 -19
-10 -31 -5 -27 -53 -89 -68 -89 -7 0 -6 4 3 10 8 5 12 10 8 10 -12 0 22 84 39
98 20 14 37 16 28 2z m-4184 -72 c10 -63 -3 -83 -25 -40 -16 32 -22 93 -9 106
13 12 26 -13 34 -66z m1519 42 c0 -20 -28 -42 -47 -36 -21 7 -23 16 -9 48 6
14 12 15 32 6 13 -6 24 -14 24 -18z m2248 19 c73 -18 104 -58 68 -88 -24 -20
-59 -16 -128 13 -44 19 -50 46 -16 70 27 19 19 19 76 5z m-3854 -15 c9 -8 16
-23 16 -32 0 -10 11 -34 25 -55 27 -39 26 -44 -5 -27 -24 13 -80 93 -80 114 0
20 24 20 44 0z m1146 -4 c24 -24 24 -22 4 -85 -9 -27 -18 -72 -19 -100 -8
-132 -21 -223 -31 -213 -9 10 -34 170 -37 243 -2 45 -6 86 -10 92 -10 16 8 59
30 72 26 15 41 13 63 -9z m1414 5 c14 -14 14 -18 -1 -35 -12 -14 -21 -16 -35
-9 -19 10 -22 18 -12 43 8 20 28 20 48 1z m1514 -36 c-1 -23 -10 -46 -20 -56
-26 -23 -30 -12 -14 35 8 22 12 43 9 46 -4 3 -1 6 6 6 7 0 9 5 5 12 -4 7 -3 8
5 4 6 -4 11 -25 9 -47z m-3043 -41 c12 -88 11 -153 -3 -150 -8 1 -12 -3 -9
-10 2 -7 9 -12 14 -11 10 2 26 -127 18 -136 -2 -2 -14 -1 -27 2 -23 6 -55 53
-62 92 -2 11 -9 33 -16 50 -6 16 -13 54 -16 85 -3 30 -6 64 -8 75 -2 16 5 22
38 32 62 17 64 16 71 -29z m649 29 c16 -12 16 -14 -2 -35 -31 -36 -63 -13 -46
32 7 19 24 20 48 3z m964 -26 c-2 -8 -11 -19 -20 -25 -14 -8 -22 -7 -35 6 -16
16 -16 19 1 37 15 16 21 18 37 8 11 -7 18 -18 17 -26z m-1435 -3 c-3 -18 -11
-36 -17 -40 -7 -5 -6 -8 3 -8 9 0 10 -4 3 -12 -19 -25 -46 -184 -32 -193 11
-7 61 212 63 273 1 19 77 16 77 -4 0 -21 -31 -128 -39 -134 -3 -3 -7 -12 -8
-20 -1 -8 -9 -33 -17 -55 -8 -22 -15 -52 -16 -68 0 -27 -28 -47 -66 -47 -26 0
-7 229 26 316 14 36 31 29 23 -8z m2812 -70 c-7 -38 -7 -40 -4 -92 2 -34 -2
-42 -37 -71 -21 -18 -40 -32 -42 -31 -2 3 4 19 33 91 5 11 9 22 10 25 6 24 40
110 43 110 2 0 0 -15 -3 -32z m-3855 12 c0 -5 -5 -10 -11 -10 -5 0 -7 5 -4 10
3 6 8 10 11 10 2 0 4 -4 4 -10z m3940 0 c0 -5 -5 -10 -11 -10 -5 0 -7 5 -4 10
3 6 8 10 11 10 2 0 4 -4 4 -10z m-35 -16 c12 -12 14 -25 9 -48 -4 -17 -7 -43
-7 -58 -1 -15 -4 -25 -9 -22 -4 3 -8 -1 -9 -8 0 -7 -6 6 -14 30 -13 42 -10
122 6 122 4 0 15 -7 24 -16z m81 -52 c-13 -43 -66 -104 -66 -76 1 42 20 97 41
120 21 23 24 23 30 7 3 -9 1 -33 -5 -51z m-4101 38 c3 -5 -1 -10 -9 -10 -9 0
-16 5 -16 10 0 6 4 10 9 10 6 0 13 -4 16 -10z m166 -5 c1 -8 2 -21 2 -27 2
-34 -15 -118 -24 -118 -6 0 -8 3 -6 8 3 4 1 32 -4 62 -5 30 -6 63 -3 73 7 21
34 23 35 2z m-76 -19 c14 -21 19 -34 29 -86 10 -44 -25 -27 -49 24 -31 69 -16
118 20 62z m4071 -18 c-9 -13 -19 -30 -23 -38 -7 -16 -27 -34 -56 -51 -20 -11
-19 -9 18 50 6 9 16 26 23 39 7 12 22 22 34 22 19 0 20 -1 4 -22z m-4141 2
c11 0 23 -25 23 -47 0 -3 4 -9 9 -12 10 -7 43 -58 43 -66 0 -2 -17 8 -39 23
-57 40 -108 124 -65 108 9 -3 21 -6 29 -6z m190 -20 c19 -36 19 -40 1 -40 -14
0 -27 22 -31 53 -3 27 13 20 30 -13z m3485 4 c0 -21 -28 -28 -46 -13 -14 12
-14 14 1 25 20 15 45 8 45 -12z m-2034 -46 c22 -49 34 -59 78 -61 20 -1 36 -5
36 -9 0 -10 -92 2 -107 14 -6 5 -15 22 -18 38 -4 16 -16 41 -27 56 l-21 26 21
-13 c11 -7 29 -30 38 -51z m840 55 c-4 -5 -13 -8 -19 -8 -7 0 -23 -27 -36 -60
-27 -68 -48 -90 -70 -72 -8 7 -12 8 -9 2 4 -6 -13 -11 -40 -13 -91 -6 -168
-24 -224 -53 l-37 -20 -58 31 c-32 17 -49 28 -38 24 76 -26 102 -27 168 -5 36
12 75 23 86 24 12 1 21 4 21 8 0 4 6 6 13 6 6 -1 43 3 80 7 72 9 83 18 93 74
3 15 9 29 15 30 5 2 9 10 9 18 0 9 10 14 27 14 14 0 23 -3 19 -7z m1298 -21
c15 -18 15 -20 -3 -40 -17 -21 -20 -21 -50 -6 -27 13 -30 18 -19 31 7 8 21 19
33 23 11 5 20 9 21 9 0 1 8 -7 18 -17z m38 -84 c-8 -8 -9 -4 -5 13 4 13 8 18
11 10 2 -7 -1 -18 -6 -23z m-3632 6 c0 -2 -7 -4 -15 -4 -8 0 -15 4 -15 10 0 5
7 7 15 4 8 -4 15 -8 15 -10z m28 -80 c-3 -56 -4 -57 -15 -31 -7 15 -17 27 -23
27 -6 0 -8 5 -4 11 3 6 1 15 -6 19 -9 5 -6 13 11 29 31 29 41 15 37 -55z
m-161 34 c-3 -8 -6 -5 -6 6 -1 11 2 17 5 13 3 -3 4 -12 1 -19z m1836 12 c5 0
6 -4 2 -9 -3 -5 3 -12 12 -14 10 -2 7 -3 -7 0 -26 4 -35 6 -60 16 -8 3 -28 8
-45 11 -16 2 -3 3 30 1 33 -3 64 -4 68 -5z m-1618 -43 c10 -23 41 -78 68 -122
28 -44 58 -94 68 -111 l19 -30 -36 3 c-45 3 -46 4 -50 50 -7 74 -24 110 -63
131 -32 18 -37 25 -36 57 1 20 -2 38 -7 41 -9 6 -1 24 10 24 4 0 16 -20 27
-43z m-111 -2 c15 -19 25 -35 22 -35 -2 0 -1 -13 4 -29 7 -25 5 -30 -16 -40
-25 -11 -54 -6 -54 10 0 5 -6 9 -13 9 -14 0 -73 60 -60 60 5 0 0 5 -9 11 -30
17 -21 32 14 25 31 -6 72 -39 62 -49 -3 -3 0 -8 7 -12 9 -6 10 4 5 39 -9 55 2
59 38 11z m3698 8 c-6 -10 -10 -35 -10 -56 0 -44 -6 -52 -44 -61 -25 -6 -41 7
-20 16 4 2 16 21 27 43 22 45 48 85 53 80 2 -2 -1 -12 -6 -22z m60 10 c5 -23
-24 -133 -34 -133 -15 0 -13 80 4 123 12 31 25 35 30 10z m78 12 c0 -23 -45
-116 -65 -133 l-25 -22 5 27 c12 57 23 83 48 111 19 20 37 29 37 17z m-2867
-69 c23 -13 60 -27 82 -31 37 -7 38 -8 18 -18 -15 -6 -39 -7 -73 0 -38 8 -54
7 -63 -2 -14 -14 -57 -7 -57 10 0 13 37 65 46 65 3 0 24 -11 47 -24z m1737 20
c0 -3 -4 -8 -10 -11 -5 -3 -10 -1 -10 4 0 6 5 11 10 11 6 0 10 -2 10 -4z m260
-6 c0 -5 -2 -10 -4 -10 -3 0 -8 5 -11 10 -3 6 -1 10 4 10 6 0 11 -4 11 -10z
m925 -1 c7 -11 -78 -99 -96 -99 -23 0 59 109 83 110 4 0 10 -5 13 -11z m-1241
-30 c24 -5 26 -7 9 -8 -13 -1 -23 -7 -23 -14 0 -17 -45 -33 -105 -35 l-50 -2
24 20 c13 11 28 20 35 20 6 0 22 9 36 19 13 11 29 17 34 14 5 -4 23 -10 40
-14z m-1809 -6 c-4 -10 -8 -22 -9 -28 -10 -38 -17 -43 -49 -32 -18 5 -38 12
-45 13 -25 7 -1 24 34 24 23 0 38 6 46 20 16 25 33 26 23 3z m2149 5 c21 4 21
4 1 -11 -23 -19 -5 -23 27 -6 16 9 24 8 36 -5 19 -19 8 -33 -28 -36 -40 -3
-46 -1 -74 25 -28 26 -27 52 1 36 9 -4 25 -6 37 -3z m-266 -15 c-3 -19 -48
-32 -48 -14 0 6 7 11 16 11 8 0 12 5 9 10 -3 6 1 10 10 10 10 0 15 -7 13 -17z
m-2562 -137 c2 -52 -1 -64 -12 -59 -8 3 -14 11 -14 17 0 7 -9 30 -19 51 -10
22 -17 45 -15 52 15 49 13 48 37 25 17 -18 22 -35 23 -86z m-88 45 c19 -16 52
-88 52 -113 0 -15 -36 10 -55 38 -16 25 -33 94 -22 94 2 0 14 -8 25 -19z
m3576 2 c9 -30 -11 -90 -37 -111 -30 -25 -31 59 -1 106 17 26 31 28 38 5z
m-3614 -53 c0 -4 16 -25 35 -46 19 -21 35 -41 35 -45 0 -5 -23 1 -50 13 -77
32 -124 122 -50 96 17 -5 30 -13 30 -18z m3685 8 c-6 -23 -75 -92 -83 -84 -9
9 11 47 39 76 36 36 53 39 44 8z m-2926 -22 c22 1 44 5 49 8 6 3 23 -1 38 -9
16 -8 31 -11 34 -7 3 4 10 8 15 9 6 1 23 5 38 8 16 4 27 3 27 -3 0 -13 42 -20
67 -11 12 4 31 2 46 -6 27 -14 44 -14 63 -3 5 4 33 5 62 2 32 -3 64 1 86 10
31 13 36 13 47 0 8 -10 22 -13 43 -9 36 8 51 8 86 4 14 -1 44 1 68 5 25 5 42
4 42 -2 0 -11 45 -7 83 7 22 9 28 7 37 -10 10 -17 34 -21 68 -10 1 1 5 1 8 0
4 0 10 5 15 12 12 20 99 19 141 -2 41 -21 80 -24 107 -9 12 6 32 5 57 -1 31
-9 43 -8 66 5 34 20 39 21 48 6 7 -11 56 -16 105 -11 11 1 39 -1 62 -5 28 -4
48 -2 57 5 8 7 35 11 65 8 33 -2 52 1 55 9 4 10 14 9 48 0 29 -9 53 -10 77 -4
21 6 48 6 70 0 22 -5 47 -5 60 0 13 4 44 7 69 4 24 -2 57 0 73 4 39 12 49 -8
17 -34 -72 -59 -101 -82 -117 -91 -10 -5 -24 -16 -32 -22 -63 -56 -112 -90
-159 -110 -30 -14 -57 -28 -60 -32 -7 -10 -237 -107 -275 -116 -16 -3 -43 -12
-60 -20 -60 -25 -222 -58 -297 -59 -21 0 -38 -4 -38 -9 0 -5 -7 -4 -15 3 -12
10 -15 10 -15 -1 0 -12 -2 -12 -9 -1 -11 17 -21 17 -32 0 -6 -9 -9 -9 -9 -1 0
7 -12 11 -30 10 -16 -1 -30 -6 -30 -10 0 -5 -5 -5 -12 -1 -7 4 -33 9 -58 10
-85 5 -221 31 -270 51 -18 7 -14 6 -69 22 -23 7 -86 32 -138 57 -52 24 -96 44
-98 44 -4 0 -134 78 -180 109 -114 75 -265 203 -265 224 0 6 7 2 14 -9 12 -16
24 -20 55 -18z m2775 7 c-7 -27 -20 -43 -36 -43 -13 0 -9 19 8 45 22 33 36 32
28 -2z m212 -10 c-6 -19 -55 -53 -92 -64 -15 -5 -9 6 22 36 56 56 82 67 70 28z
m-3505 -97 c0 -6 2 -18 3 -26 2 -8 0 -24 -4 -35 -7 -17 -10 -14 -27 23 -12 24
-18 54 -15 69 l5 26 18 -22 c11 -13 19 -28 20 -35z m47 -3 c45 -62 143 -165
213 -225 115 -97 144 -127 129 -132 -24 -9 -74 9 -85 30 -5 11 -20 31 -32 44
-13 13 -23 29 -23 36 0 17 -17 27 -49 30 -14 1 -29 2 -32 3 -3 1 -16 25 -29
54 -32 70 -48 87 -82 87 -15 0 -29 6 -29 13 -3 29 -6 53 -7 60 -1 4 -1 9 1 11
1 2 -7 13 -17 25 -11 12 -15 21 -10 21 5 0 28 -26 52 -57z m3199 -4 c-5 -39
-44 -109 -60 -109 -15 0 2 81 24 116 28 46 43 44 36 -7z m-3310 -26 c64 -68
66 -109 3 -65 -42 29 -63 63 -54 87 8 21 11 20 51 -22z m3239 -8 c-7 -35 -12
-42 -41 -47 -14 -3 -25 -4 -25 -3 0 3 65 75 68 75 1 0 0 -11 -2 -25z m139 3
c-10 -34 -85 -104 -95 -88 -8 13 5 33 54 81 35 35 50 37 41 7z m-3434 -40 c22
-12 39 -28 39 -35 0 -7 5 -13 12 -13 6 0 9 -3 5 -6 -11 -11 -66 14 -99 45 -27
25 -30 31 -14 31 10 0 36 -10 57 -22z m3483 3 c7 -10 -52 -61 -70 -61 -7 0
-21 -3 -31 -7 -21 -8 31 47 62 65 24 14 32 15 39 3z m-3238 -118 c19 -61 3
-60 -35 2 -28 46 -31 56 -20 76 l12 23 15 -30 c8 -16 21 -48 28 -71z m2973 20
c-12 -33 -49 -93 -56 -93 -13 0 11 77 30 98 28 30 39 28 26 -5z m-2998 -60
c15 -41 10 -46 -22 -25 -30 19 -63 74 -52 86 10 9 64 -35 74 -61z m2578 27
c49 -51 56 -75 28 -101 -25 -23 -56 -19 -96 12 -50 39 -67 99 -33 118 33 20
61 12 101 -29z m356 18 c-8 -27 -32 -48 -54 -48 -10 0 -3 12 19 35 42 41 43
42 35 13z m105 -50 c-23 -21 -51 -38 -63 -38 -12 0 -17 4 -12 8 6 4 23 24 38
45 16 20 32 35 37 32 4 -2 14 3 21 12 13 15 14 15 18 -2 2 -12 -12 -33 -39
-57z m-3096 -17 l39 -39 -36 7 c-30 7 -107 55 -107 67 0 2 15 4 33 4 25 0 42
-9 71 -39z m3183 23 c4 -12 -53 -47 -89 -55 -37 -9 -34 0 13 38 37 30 69 37
76 17z m-2944 -83 c-1 -2 4 -16 12 -32 20 -38 19 -43 -6 -25 -32 22 -80 99
-68 107 10 6 68 -41 62 -50z m2677 16 c0 -14 -13 -35 -30 -50 l-30 -27 0 24
c0 24 34 76 51 76 5 0 9 -11 9 -23z m-82 -32 c-14 -32 -54 -59 -64 -44 -7 11
50 69 67 69 5 0 3 -11 -3 -25z m131 -28 c-41 -34 -89 -61 -97 -53 -15 15 21
56 70 79 63 30 77 17 27 -26z m-2804 34 c15 -1 70 -52 68 -62 -2 -5 2 -9 8 -9
5 0 8 -4 5 -9 -4 -5 -23 -3 -46 6 -65 26 -115 88 -62 78 9 -2 22 -4 27 -4z
m-11 -70 c12 -11 27 -21 34 -21 6 0 13 -4 17 -9 9 -16 -76 -3 -104 16 -14 10
-30 16 -35 15 -5 -2 -4 3 3 12 16 19 57 13 85 -13z m2876 15 c0 -18 -42 -45
-83 -53 -17 -3 -35 -11 -39 -17 -5 -7 -8 -7 -8 2 0 7 -5 10 -12 6 -6 -4 -9 -3
-5 2 3 5 23 18 44 29 21 11 40 23 43 26 16 19 60 23 60 5z m-1856 -4 c3 -5 -1
-9 -9 -9 -8 0 -12 4 -9 9 3 4 7 8 9 8 2 0 6 -4 9 -8z m-765 -38 c11 -14 22
-30 24 -37 2 -7 8 -8 13 -4 5 4 4 11 -1 15 -13 9 -37 52 -30 52 6 0 73 -35
164 -86 79 -44 229 -119 275 -138 32 -14 37 -18 26 -31 -18 -22 -33 -19 -68
15 -18 17 -36 30 -42 30 -5 0 -10 3 -10 8 0 13 -54 31 -85 28 -25 -3 -37 4
-70 39 -22 23 -49 45 -60 49 -40 12 -95 15 -100 5 -4 -5 -15 -5 -28 2 -27 14
-67 61 -60 71 9 15 32 7 52 -18z m2069 -36 c19 -13 18 -14 -22 -33 -22 -11
-44 -24 -48 -30 -4 -5 -8 -1 -8 11 0 11 -4 24 -8 30 -5 5 -19 26 -31 46 l-22
37 60 -24 c33 -13 69 -29 79 -37z m278 27 c2 -12 -77 -95 -91 -95 -13 0 27 77
51 98 27 23 36 23 40 -3z m-2426 -20 c0 9 64 -27 77 -44 16 -21 17 -44 1 -35
-10 6 -10 4 0 -8 11 -13 9 -17 -10 -21 -61 -14 -141 14 -123 43 8 12 56 10 66
-4 4 -5 12 -5 19 -1 8 5 -1 15 -26 29 -42 23 -65 68 -25 46 12 -6 21 -8 21 -5z
m2330 -14 c-10 -19 -40 -30 -40 -15 0 8 44 43 48 39 2 -2 -1 -13 -8 -24z m166
3 c-3 -9 -6 -18 -6 -20 0 -2 -9 -4 -20 -4 -11 0 -20 -4 -20 -8 0 -9 -60 -46
-65 -40 -9 9 28 49 63 68 45 24 56 25 48 4z m-2243 -69 c31 -32 57 -81 39 -73
-48 22 -102 77 -102 103 0 16 34 0 63 -30z m2271 29 c12 -5 13 -10 5 -26 -6
-11 -13 -17 -16 -14 -4 3 -12 1 -19 -4 -6 -6 -36 -13 -65 -16 l-54 -5 65 35
c36 19 66 35 67 35 1 1 8 -2 17 -5z m-274 -38 c0 -24 -12 -46 -25 -46 -6 0
-20 -9 -30 -20 -26 -28 -37 -25 -23 8 24 55 78 96 78 58z m-2011 -55 c34 -30
29 -42 -16 -33 -26 5 -73 49 -73 68 0 19 47 1 89 -35z m1914 24 c-20 -27 -29
-30 -39 -13 -8 12 22 38 43 38 11 0 10 -6 -4 -25z m155 -25 c-12 -19 -115 -66
-125 -57 -12 12 14 38 48 47 21 6 39 14 39 18 0 4 11 9 25 10 23 2 24 0 13
-18z m-1848 -50 c45 -44 53 -68 18 -49 -43 22 -88 60 -88 75 0 25 28 15 70
-26z m535 27 c20 -12 32 -58 21 -76 -4 -5 -27 -4 -58 3 -42 9 -54 16 -56 33
-2 13 5 27 20 37 27 19 46 20 73 3z m1069 -27 c-11 -10 -36 -25 -57 -34 l-38
-15 17 29 c18 29 86 64 93 47 2 -5 -5 -17 -15 -27z m-75 13 c-35 -44 -49 -52
-80 -41 -16 5 -29 13 -29 17 0 8 84 38 109 40 11 1 11 -2 0 -16z m-1785 -5
c22 -6 46 -16 51 -21 7 -7 6 -8 -2 -3 -6 3 -14 2 -17 -3 -12 -19 -116 8 -116
31 0 11 36 10 84 -4z m2136 -3 c0 -8 -8 -18 -17 -23 -21 -11 -123 -26 -123
-19 0 3 19 15 43 26 73 35 97 39 97 16z m-1912 -47 c48 -25 54 -38 15 -38 -32
0 -104 39 -111 59 -6 18 35 9 96 -21z m275 5 c24 -7 21 -18 -6 -21 -12 -1 -36
10 -52 23 l-30 24 35 -10 c19 -6 43 -13 53 -16z m-33 -43 c32 -29 33 -31 10
-26 -14 3 -30 6 -35 6 -16 0 -65 49 -65 65 0 18 42 -3 90 -45z m1150 42 c-8
-4 -27 -15 -42 -25 -18 -13 -38 -17 -66 -14 -31 4 -54 -2 -99 -24 -42 -22 -66
-28 -88 -24 -16 3 -40 6 -52 7 -33 3 -28 18 5 19 15 0 36 3 47 5 11 2 31 6 45
8 14 2 32 6 40 10 23 9 182 44 205 44 15 1 16 -1 5 -6z m299 -6 c-14 -13 -132
-56 -140 -50 -13 7 8 33 36 44 20 9 112 14 104 6z m-259 -14 c0 -12 -30 -36
-62 -50 -34 -14 -36 -3 -5 25 30 28 67 41 67 25z m-1490 -28 c0 5 7 3 15 -4
12 -10 15 -10 16 1 0 10 2 11 6 2 2 -7 11 -13 19 -13 8 0 14 -4 14 -10 0 -13
-61 -13 -97 1 -27 10 -27 11 -9 25 16 11 22 11 28 1 4 -6 8 -8 8 -3z m440 -4
c3 -4 20 -15 38 -24 42 -22 35 -30 -18 -21 -43 7 -70 27 -70 51 0 11 6 13 23
8 12 -4 24 -10 27 -14z m104 -10 c7 -7 -1 -10 -21 -10 -17 0 -37 8 -44 17 -13
15 -11 16 21 9 19 -3 39 -11 44 -16z m1225 1 c21 -14 -2 -22 -74 -27 -72 -5
-87 8 -27 24 48 13 84 14 101 3z m-1508 -18 c46 -15 50 -18 29 -23 -33 -8 -89
5 -109 24 -14 15 -13 16 6 16 11 0 45 -8 74 -17z m804 8 c-3 -5 -19 -12 -35
-16 -17 -4 -37 -14 -46 -22 -13 -13 -19 -14 -38 -3 -13 7 -33 9 -44 6 -37 -12
-82 -15 -82 -5 0 10 -31 7 -77 -7 -14 -4 -23 -2 -23 5 0 6 -6 11 -13 11 -7 0
-21 6 -30 13 -14 10 4 12 100 11 96 -2 278 8 291 14 2 1 1 -2 -3 -7z m239 -4
c-4 -12 -81 -57 -97 -57 -3 0 -4 8 -3 18 2 10 21 24 47 34 54 21 60 21 53 5z
m236 -2 c0 -9 -12 -18 -30 -21 -16 -4 -30 -9 -30 -13 0 -4 -18 -7 -39 -8 -76
-3 -21 37 69 50 14 3 26 5 28 6 1 0 2 -6 2 -14z m-895 -15 c35 -13 82 -60 60
-60 -23 0 -88 29 -97 43 -18 28 -6 33 37 17z m445 -10 c0 -16 -42 -38 -85 -45
-39 -7 -40 -7 -17 10 53 39 102 56 102 35z m-660 -18 c73 -9 90 -16 77 -29
-10 -9 -63 -6 -103 7 -29 10 -33 14 -23 26 7 8 15 11 18 7 3 -4 17 -9 31 -11z
m914 -10 c5 -3 -2 -11 -15 -18 -27 -15 -109 -19 -109 -5 0 18 98 36 124 23z
m-1054 -12 c11 -7 7 -10 -20 -11 -19 -1 -46 -3 -60 -3 -38 -3 -55 5 -38 15 18
12 100 11 118 -1z m515 0 c3 -5 13 -6 21 -3 9 3 19 0 24 -7 6 -9 13 -9 28 -1
11 6 28 11 36 11 24 0 20 -56 -4 -80 -26 -26 -42 -18 -30 15 5 14 8 25 6 25
-2 0 -21 -16 -41 -35 -37 -33 -56 -38 -82 -22 -8 5 -9 17 -3 38 5 17 9 34 8
38 -3 29 23 44 37 21z m754 -6 c16 -16 -62 -25 -107 -12 -35 11 -36 12 -12 18
25 7 111 3 119 -6z m-891 -20 c28 -8 52 -17 52 -20 0 -12 -109 5 -133 21 -49
32 -34 32 81 -1z m472 -8 c0 -16 -43 -26 -110 -26 -54 0 -67 8 -42 26 24 19
152 19 152 0z m-663 -10 c3 -2 -8 -11 -24 -18 -29 -14 -83 -13 -83 1 0 18 92
33 107 17z m853 -16 c13 -8 12 -10 -5 -11 -40 -3 -80 2 -89 11 -13 13 74 13
94 0z m-625 -21 c5 -5 0 -9 -13 -9 -12 0 -22 -5 -22 -11 0 -5 -4 -8 -9 -4 -5
3 -13 1 -16 -5 -4 -7 -11 -7 -18 -2 -7 5 -25 8 -40 7 -39 -3 -44 13 -8 28 32
13 110 11 126 -4z m402 -14 c2 -7 -13 -10 -39 -9 -66 3 -68 3 -68 14 0 13 102
8 107 -5z"/>
<path d="M1172 3132 c-16 -10 -6 -38 16 -47 15 -5 61 29 51 39 -10 10 -55 16
-67 8z"/>
<path d="M445 2627 c-27 -20 -13 -67 20 -67 31 0 46 26 32 57 -12 26 -25 29
-52 10z"/>
<path d="M330 2515 c-7 -9 -10 -18 -7 -21 3 -3 -1 -17 -8 -31 -16 -31 -3 -78
28 -95 43 -23 75 -17 107 19 17 18 30 40 30 48 0 8 5 15 10 15 14 0 12 -16 -4
-49 -18 -34 -10 -47 29 -46 32 1 34 4 38 89 2 34 -2 42 -25 55 -34 20 -67 4
-103 -51 -15 -23 -33 -38 -45 -38 -28 0 -25 32 6 61 14 13 30 32 35 42 9 15 5
17 -34 17 -28 0 -49 -6 -57 -15z"/>
<path d="M383 2203 c-34 -4 -83 -55 -83 -85 0 -8 14 -36 31 -61 28 -43 34 -47
70 -47 l40 0 -3 47 c-2 36 -7 49 -20 51 -11 2 -18 -3 -18 -11 0 -17 -19 -26
-37 -20 -18 6 -16 48 3 63 21 18 106 30 122 18 17 -14 15 -49 -4 -76 -19 -27
-12 -40 18 -36 13 1 29 3 36 3 10 1 12 13 7 49 -9 70 -14 81 -45 97 -28 15
-51 16 -117 8z"/>
<path d="M566 1861 c-7 -10 -139 -45 -176 -46 -19 0 -24 -5 -22 -20 1 -11 3
-29 5 -40 4 -36 42 -104 57 -105 36 0 41 16 15 46 -39 45 -33 61 30 79 30 9
68 17 85 17 40 1 53 18 40 52 -10 26 -24 33 -34 17z"/>
<path d="M615 1670 c-19 -21 -108 -52 -157 -54 -23 -1 -28 -5 -28 -27 0 -23
40 -111 59 -132 4 -4 21 -3 37 3 l29 12 -22 18 c-12 9 -19 20 -16 24 4 3 1 6
-6 6 -7 0 -11 9 -9 22 2 17 19 26 88 49 91 29 106 45 74 80 -22 24 -27 24 -49
-1z"/>
<path d="M633 1492 c-39 -37 -75 -77 -82 -89 -40 -77 20 -111 163 -92 43 6 80
8 83 6 9 -10 -55 -59 -115 -88 -55 -27 -61 -32 -52 -49 12 -23 50 -46 50 -30
0 9 65 55 96 67 12 4 13 -2 8 -36 -4 -27 -3 -41 5 -42 6 -1 16 -3 21 -4 6 -1
17 -3 25 -4 21 -2 8 -26 -21 -40 -14 -6 -30 -16 -37 -21 -7 -6 -20 -16 -30
-23 -21 -14 -14 -42 13 -57 13 -7 25 -3 47 18 41 38 103 85 134 101 50 25 26
59 -49 68 -29 3 -52 10 -52 14 0 5 5 29 12 54 11 41 10 46 -10 68 -12 13 -22
27 -22 31 0 4 -10 22 -22 38 l-21 30 -17 -21 c-23 -32 -118 -52 -149 -32 -24
15 4 63 52 91 23 13 48 25 56 26 27 5 29 19 7 51 l-23 33 -70 -68z"/>
<path d="M919 1033 c-20 -5 -30 -48 -16 -62 24 -24 67 -4 67 31 0 20 -27 36
-51 31z"/>
<path d="M1014 966 c-35 -16 -71 -67 -77 -111 -4 -30 14 -75 36 -93 12 -10 63
-17 95 -13 19 2 14 19 -8 26 -11 4 -31 17 -45 31 -20 20 -22 29 -15 54 9 32
22 47 59 68 19 11 22 11 15 0 -6 -11 -5 -11 8 0 14 11 19 10 33 -11 9 -14 17
-34 18 -46 2 -30 25 -34 58 -10 29 20 31 39 5 39 -8 0 -19 13 -25 29 -21 49
-91 65 -157 37z"/>
<path d="M4034 2605 c-25 -17 -22 -61 5 -68 50 -13 79 33 43 66 -23 21 -22 21
-48 2z"/>
<path d="M3668 1146 c-41 -31 -1 -88 45 -64 23 12 34 41 19 46 -7 2 -10 8 -6
13 3 5 1 9 -5 9 -5 0 -15 2 -23 5 -7 2 -21 -2 -30 -9z"/>
<path d="M2875 566 c-21 -15 -16 -55 8 -70 22 -14 51 3 55 34 6 38 -31 59 -63
36z"/>
<path d="M3035 2690 c-25 -35 -43 -65 -41 -67 7 -8 64 54 82 88 27 54 7 43
-41 -21z"/>
<path d="M3170 2713 c0 -18 25 -33 54 -33 26 0 28 2 16 14 -18 18 -70 32 -70
19z"/>
<path d="M3386 2702 c-6 -11 22 -39 44 -43 20 -4 60 10 60 21 0 5 -5 12 -11
16 -20 12 -86 16 -93 6z"/>
<path d="M3610 2682 c0 -24 32 -69 61 -86 16 -10 29 -14 29 -9 0 14 -89 108
-90 95z"/>
<path d="M3421 2253 c-12 -22 -19 -28 -16 -15 9 31 -2 28 -36 -10 -24 -28 -29
-30 -34 -15 -4 9 -11 14 -16 11 -5 -3 -9 0 -9 6 0 12 -24 40 -34 40 -14 0 -4
-31 20 -59 14 -17 21 -31 15 -31 -19 0 -12 -28 9 -35 33 -11 100 41 116 90 3
11 13 28 22 38 13 14 13 17 1 17 -9 0 -25 -17 -38 -37z"/>
<path d="M3475 2245 c-5 -11 -11 -22 -14 -25 -10 -9 -51 -69 -51 -75 0 -3 -13
-19 -30 -35 -28 -28 -43 -30 -82 -15 -13 5 -18 2 -18 -8 0 -9 8 -21 18 -26 9
-6 11 -11 5 -11 -7 0 -13 -5 -13 -10 0 -7 6 -7 19 -1 10 6 21 8 23 5 3 -3 17
-7 32 -10 26 -4 37 10 14 20 -9 3 -7 9 6 20 11 9 17 16 12 16 -4 0 4 11 18 25
37 37 78 112 73 132 -4 16 -5 16 -12 -2z"/>
<path d="M3193 2238 c33 -84 43 -105 54 -117 8 -7 16 -11 19 -9 7 7 -59 137
-70 138 -4 0 -6 -6 -3 -12z"/>
<path d="M3180 2190 c-10 -7 -11 -10 -2 -10 6 0 11 -3 10 -7 -2 -9 30 -73 36
-73 4 0 -22 91 -27 96 -1 2 -9 -1 -17 -6z"/>
<path d="M3260 2187 c0 -17 30 -65 45 -70 17 -7 19 -1 5 16 -6 7 -19 23 -30
37 -10 14 -19 21 -20 17z"/>
<path d="M3424 2063 c-11 -16 -23 -35 -26 -43 -5 -15 -18 -16 -85 -12 -12 1
-29 9 -37 18 -14 13 -16 14 -16 0 0 -8 5 -18 10 -21 6 -3 10 -15 10 -27 0 -17
3 -18 14 -9 22 18 33 -11 35 -89 1 -36 4 -74 6 -85 2 -11 4 -39 4 -63 1 -26 5
-41 11 -37 6 3 8 25 6 48 -4 40 -9 209 -7 235 1 6 9 12 19 12 23 0 57 35 71
73 6 15 9 27 8 27 -2 0 -12 -12 -23 -27z"/>
<path d="M3051 1944 c0 -11 3 -14 6 -6 3 7 2 16 -1 19 -3 4 -6 -2 -5 -13z"/>
<path d="M3242 1890 c-12 -19 -27 -51 -33 -70 -7 -19 -18 -44 -25 -55 -16 -22
-18 -35 -6 -35 4 0 18 21 31 48 13 26 33 64 43 85 26 50 17 72 -10 27z"/>
<path d="M3486 1749 c-11 -30 -14 -69 -7 -74 5 -2 11 14 15 37 7 40 1 64 -8
37z"/>
<path d="M3370 1740 c0 -11 29 -40 41 -40 12 0 -12 38 -28 44 -7 3 -13 1 -13
-4z"/>
<path d="M3315 1609 c-18 -55 -11 -113 10 -79 3 6 1 10 -6 10 -8 0 -8 4 1 15
7 8 9 15 6 15 -4 0 -2 8 3 18 5 10 6 24 1 31 -6 10 -10 7 -15 -10z"/>
<path d="M3359 1575 c-1 -28 -3 -72 -5 -99 -4 -63 12 -48 22 19 9 71 8 105 -5
118 -8 8 -11 -2 -12 -38z"/>
<path d="M3086 1578 c-8 -31 -7 -48 2 -48 4 0 8 16 9 35 2 40 -2 45 -11 13z"/>
<path d="M3071 1474 c0 -11 3 -14 6 -6 3 7 2 16 -1 19 -3 4 -6 -2 -5 -13z"/>
<path d="M1663 2401 c-38 -91 -22 -279 27 -309 14 -8 20 -9 20 -1 0 8 6 7 17
-2 11 -10 14 -10 9 -1 -9 15 6 16 22 0 8 -8 12 -8 12 -1 0 10 53 9 71 -2 5 -4
9 -1 9 4 0 6 5 11 11 11 5 0 7 -6 3 -12 -4 -7 3 -3 14 9 39 40 53 162 30 262
-6 28 -16 51 -21 51 -5 0 -7 7 -3 15 3 9 0 15 -10 15 -9 0 -12 -5 -8 -12 5 -8
3 -8 -7 -2 -8 5 -52 9 -98 10 l-83 2 -15 -37z m102 1 c-3 -3 -11 0 -18 7 -9
10 -8 11 6 5 10 -3 15 -9 12 -12z m-90 -22 c-3 -5 -1 -10 5 -10 6 0 8 -4 5
-10 -10 -16 -23 -11 -20 8 5 23 4 22 11 22 3 0 2 -4 -1 -10z m95 -15 c0 -27
-1 -28 -24 -19 -12 5 -13 9 -3 25 16 26 27 24 27 -6z m78 -11 c-3 -14 -5 -12
-10 9 -3 19 -2 25 4 19 6 -6 8 -18 6 -28z m-131 6 c-1 -11 -5 -20 -9 -20 -4 0
-8 9 -8 20 0 11 4 20 9 20 6 0 9 -9 8 -20z m99 -3 c1 -9 -4 -17 -12 -17 -8 0
-14 9 -14 21 0 24 22 21 26 -4z m77 3 c3 -12 0 -20 -7 -20 -6 0 -12 9 -13 20
-1 11 2 20 6 20 5 0 11 -9 14 -20z m-223 -90 c0 -28 -5 -50 -10 -50 -7 0 -10
20 -9 50 2 28 6 50 11 50 4 0 8 -22 8 -50z m40 -6 c0 -30 -3 -53 -8 -50 -4 2
-7 24 -6 48 2 53 3 58 9 58 3 0 5 -25 5 -56z m60 0 c0 -47 -3 -55 -17 -52 -14
2 -19 15 -21 56 -3 47 -1 52 17 52 19 0 21 -6 21 -56z m51 49 c5 -43 5 -84 -1
-94 -15 -23 -30 3 -30 52 0 37 4 49 15 49 8 0 15 -3 16 -7z m38 -50 c1 -32 -1
-54 -5 -50 -10 10 -14 107 -4 107 3 0 8 -26 9 -57z m47 1 c0 -26 -6 -49 -13
-51 -6 -2 -10 4 -9 14 2 10 0 30 -4 44 -5 16 -4 31 3 38 17 17 24 4 23 -45z
m-193 -102 c3 -18 1 -30 -4 -26 -5 3 -9 19 -9 36 0 39 6 34 13 -10z m-38 18
c3 -5 1 -10 -4 -10 -6 0 -11 5 -11 10 0 6 2 10 4 10 3 0 8 -4 11 -10z m95 -16
c0 -20 -4 -25 -16 -20 -9 3 -18 6 -20 6 -2 0 -4 9 -4 20 0 13 7 20 20 20 15 0
20 -7 20 -26z m48 4 c-5 -32 -28 -35 -28 -4 0 17 5 26 16 26 10 0 14 -7 12
-22z m41 15 c0 -5 -4 -17 -9 -28 -8 -18 -9 -17 -9 8 -1 15 4 27 9 27 6 0 10
-3 9 -7z m36 -10 c-2 -10 -4 -21 -4 -25 -1 -5 -5 -8 -11 -8 -8 0 -8 23 -1 48
1 1 5 2 10 2 5 0 8 -8 6 -17z"/>
<path d="M999 2285 c-1 -11 0 -24 1 -30 1 -5 3 -17 5 -25 8 -34 37 -106 52
-130 22 -32 89 -154 110 -200 11 -24 18 -30 20 -19 2 9 -29 86 -70 170 -41 85
-80 172 -88 194 -16 49 -29 65 -30 40z"/>
<path d="M1335 2258 c-10 -6 -39 -27 -64 -45 -30 -24 -52 -33 -68 -30 -17 3
-23 0 -23 -14 0 -32 35 -32 81 0 70 48 130 120 74 89z"/>
<path d="M1360 2231 c0 -6 -22 -32 -50 -59 -27 -27 -50 -54 -50 -61 0 -22 25
-10 50 23 14 19 27 33 28 31 2 -2 12 4 23 13 20 17 26 62 9 62 -5 0 -10 -4
-10 -9z"/>
<path d="M1285 2050 c-8 -26 -7 -42 5 -67 18 -40 35 -43 25 -5 -5 15 -11 45
-14 67 l-6 40 -10 -35z"/>
<path d="M1440 1793 c-14 -8 -40 -12 -57 -10 -18 2 -33 -1 -33 -6 0 -12 26
-37 33 -31 2 3 17 7 33 10 32 6 74 30 74 43 0 12 -22 9 -50 -6z"/>
<path d="M1006 1756 c5 -14 19 -19 89 -31 42 -7 85 3 79 19 -5 14 -51 10 -71
-7 -8 -6 -13 -6 -13 0 0 5 -17 15 -39 21 -49 15 -52 15 -45 -2z"/>
<path d="M2100 1743 c1 -29 23 -38 97 -39 117 -3 129 -7 167 -65 18 -29 21
-24 -59 -87 -5 -4 -21 -5 -35 -2 -23 5 -23 7 -6 13 15 6 17 10 8 19 -7 7 -12
27 -12 45 0 18 -4 33 -10 33 -5 0 -10 -7 -10 -15 0 -8 -4 -15 -10 -15 -5 0
-10 -7 -10 -15 0 -8 -4 -15 -9 -15 -15 0 -33 29 -27 45 3 8 2 15 -3 15 -10 0
-32 -25 -27 -31 2 -2 -6 -11 -18 -20 -21 -16 -22 -16 -23 3 -1 12 -14 33 -29
49 -23 24 -30 26 -50 17 -13 -6 -27 -8 -30 -5 -9 9 24 39 35 32 5 -3 12 -1 15
4 9 14 -23 22 -44 11 -40 -22 -27 -70 19 -70 34 0 55 -22 48 -51 -8 -29 35
-48 58 -25 30 30 84 18 78 -18 -4 -19 1 -24 41 -33 38 -8 48 -7 64 7 30 28 45
28 69 0 55 -66 140 -100 191 -77 26 12 28 38 5 78 -16 28 -66 59 -95 59 -7 0
-29 5 -49 10 -28 8 -40 19 -53 48 -26 58 -62 74 -169 76 -60 1 -92 6 -95 14
-4 13 -22 17 -22 5z"/>
<path d="M1162 1515 c0 -16 2 -22 5 -12 2 9 2 23 0 30 -3 6 -5 -1 -5 -18z"/>
<path d="M1865 983 c-37 -40 -43 -57 -24 -69 10 -6 9 -87 -2 -134 -5 -17 30
-25 67 -16 23 6 23 8 21 128 -1 86 -6 123 -14 125 -7 3 -28 -13 -48 -34z"/>
<path d="M2133 1008 c-13 -6 -23 -15 -23 -20 0 -4 -6 -8 -13 -8 -16 0 -97 -78
-98 -94 0 -6 -2 -20 -4 -31 -3 -11 0 -34 5 -51 11 -33 53 -54 109 -54 44 0 91
46 91 89 0 35 -30 71 -60 71 -30 0 -24 23 15 59 19 17 35 36 35 41 0 13 -29
12 -57 -2z m-23 -173 c0 -8 -6 -15 -14 -15 -17 0 -28 14 -19 24 12 12 33 6 33
-9z"/>
<path d="M2293 1011 c-20 -9 -40 -47 -30 -57 3 -3 20 -2 39 3 83 22 96 -17 26
-78 -52 -45 -72 -78 -62 -104 5 -12 20 -15 68 -12 33 2 78 0 100 -5 52 -12 76
6 43 32 -12 9 -34 23 -49 31 l-28 14 26 37 c28 39 36 110 15 131 -14 14 -120
19 -148 8z"/>
<path d="M2620 1010 c-63 -5 -64 -5 -78 -42 -18 -47 -12 -62 33 -83 44 -21 49
-29 30 -45 -12 -10 -26 -9 -70 7 l-55 21 3 -26 c1 -13 14 -38 28 -53 21 -23
36 -29 67 -29 85 0 120 29 108 90 -2 14 -5 28 -5 31 -1 3 -10 15 -22 28 -20
21 -20 23 -4 41 10 11 25 22 34 25 9 2 22 14 29 25 11 18 10 20 -10 17 -13 -1
-52 -4 -88 -7z"/>
<path d="M1738 923 c-37 -9 -27 -73 12 -73 35 0 50 61 17 72 -7 3 -19 3 -29 1z"/>
<path d="M2755 916 c-27 -20 -13 -66 21 -66 24 0 48 34 37 52 -11 20 -41 27
-58 14z"/>
<path d="M2040 4201 c-58 -25 -65 -31 -66 -57 -2 -49 8 -58 65 -55 90 5 106
-10 75 -71 -26 -50 -64 -77 -94 -67 -29 11 -85 59 -119 104 -67 88 -195 50
-404 -121 -18 -15 -115 -78 -207 -135 -30 -19 -88 -50 -127 -69 -40 -18 -75
-41 -78 -51 -10 -31 15 -67 52 -74 19 -3 37 -13 40 -21 9 -23 60 -45 88 -38
18 4 30 1 43 -15 9 -11 33 -22 52 -25 19 -2 46 -8 60 -13 14 -6 34 -9 45 -7
11 2 30 -1 42 -7 14 -8 35 -9 60 -3 21 4 58 9 83 10 25 0 63 8 85 16 22 9 49
18 60 20 23 4 55 45 55 71 0 19 11 22 25 8 11 -10 73 -32 143 -51 42 -11 43
-13 42 -48 -3 -66 0 -78 24 -107 l25 -29 -22 -11 c-30 -17 -111 -94 -131 -126
-9 -15 -19 -39 -22 -54 -3 -16 -11 -37 -19 -49 -21 -29 -19 -45 8 -51 40 -10
651 -12 664 -2 10 7 7 19 -12 51 -13 23 -25 61 -27 86 -3 43 -2 45 27 48 16 2
40 12 53 23 14 10 30 19 37 19 6 0 16 10 22 23 18 39 -4 65 -86 103 -41 19
-90 46 -108 60 -33 25 -45 64 -19 64 7 0 30 14 51 30 38 30 39 30 59 11 12
-10 32 -22 46 -26 14 -4 37 -21 53 -36 19 -20 37 -29 60 -29 18 0 48 -8 67
-19 28 -15 52 -18 122 -16 48 2 94 8 104 13 9 5 36 7 60 4 50 -5 101 12 109
37 3 9 16 18 30 19 65 5 110 56 78 87 -13 14 -13 18 1 40 25 38 19 53 -31 76
-135 61 -313 157 -349 187 -5 5 -20 15 -32 21 -12 6 -65 43 -118 81 -144 105
-194 105 -305 -1 -80 -75 -116 -96 -134 -77 -6 7 -19 45 -28 84 -29 123 -52
164 -106 182 -51 18 -99 13 -171 -17z m196 -23 c23 -17 22 -46 -1 -68 -21 -20
-23 -20 -20 -4 2 11 4 21 6 24 6 14 4 36 -5 42 -6 4 -15 -5 -22 -20 -7 -17
-20 -28 -33 -29 -21 -2 -21 -1 4 28 14 17 23 34 20 39 -6 10 36 0 51 -12z
m-161 -20 c27 -12 34 -38 10 -38 -8 0 -15 7 -15 15 0 18 -9 19 -44 5 -28 -10
-34 -2 -14 18 15 15 30 15 63 0z m141 -87 c11 9 14 9 14 0 0 -14 32 -11 42 4
13 18 9 -22 -6 -49 -13 -25 -14 -25 -19 -6 -6 25 -27 27 -28 3 0 -11 -3 -13
-6 -5 -9 24 -22 12 -30 -30 -5 -23 -14 -43 -22 -46 -10 -3 -11 0 -2 15 17 34
21 73 6 73 -20 0 -13 34 10 45 15 8 21 8 23 -3 3 -10 7 -10 18 -1z m-389 -3
c29 -13 73 -55 108 -101 11 -15 25 -27 32 -27 7 0 13 -4 13 -9 0 -5 9 -13 20
-16 11 -3 20 -11 20 -16 0 -5 -9 -9 -20 -9 -11 0 -20 5 -20 10 0 6 -7 10 -15
10 -9 0 -18 7 -21 15 -4 8 -15 15 -25 15 -10 0 -19 7 -19 15 0 8 -4 16 -10 16
-5 1 -15 2 -22 3 -7 0 -15 12 -18 26 -5 23 -10 25 -63 23 -31 -1 -59 3 -63 8
-3 5 -10 7 -15 4 -5 -4 -9 -4 -9 -1 0 7 72 45 87 46 7 0 25 -6 40 -12z m793 8
c0 -10 -119 -126 -129 -126 -6 0 -11 -4 -11 -10 0 -11 -115 -71 -129 -68 -5 2
-11 -1 -13 -7 -1 -5 11 -11 27 -13 23 -2 34 -11 44 -33 7 -16 17 -27 21 -24
13 8 42 -41 38 -62 -3 -15 -7 -13 -31 12 l-27 30 0 -26 c0 -30 17 -48 51 -54
26 -5 59 -39 59 -61 0 -28 -30 -12 -50 26 l-14 25 -6 -25 c-4 -14 -12 -24 -17
-23 -6 1 -9 -6 -6 -17 3 -11 9 -20 14 -20 5 0 9 -7 9 -15 0 -17 -2 -18 -24 -9
-9 3 -16 12 -16 18 0 7 -7 21 -15 32 -14 18 -15 16 -9 -19 5 -30 3 -41 -12
-52 -18 -14 -17 -14 9 -15 24 0 27 -3 22 -20 -5 -15 0 -21 19 -26 29 -7 34
-19 11 -28 -9 -3 -15 0 -15 9 0 8 -7 15 -15 15 -9 0 -15 -10 -15 -26 0 -20 -4
-25 -16 -20 -9 3 -20 6 -24 6 -5 0 -16 12 -24 27 -12 24 -12 30 1 50 15 22 14
23 -14 23 -16 0 -34 -5 -39 -10 -7 -7 -19 -8 -37 -1 -40 15 -34 35 7 28 30 -5
33 -3 29 14 -4 13 -15 19 -37 20 -17 0 -25 3 -18 6 19 7 14 23 -7 23 -22 0
-37 -16 -21 -22 7 -2 5 -11 -5 -23 -10 -14 -14 -15 -13 -5 2 10 -4 14 -21 12
-20 -2 -22 0 -11 13 7 8 10 16 6 16 -3 1 -10 3 -16 4 -5 1 -14 3 -18 4 -26 4
-78 151 -53 151 16 0 13 27 -4 34 -24 9 -17 34 13 50 23 12 25 15 10 21 -10 4
-16 11 -13 16 3 4 17 4 30 -1 14 -5 25 -6 25 -3 0 4 5 2 10 -3 6 -6 30 -9 54
-7 28 3 46 0 51 -8 5 -7 4 -10 -2 -6 -6 4 -14 0 -17 -8 -4 -12 3 -15 41 -12
26 2 48 8 50 14 3 8 -4 11 -18 8 -31 -6 -41 3 -27 25 9 15 16 16 31 8 11 -5
22 -6 26 -2 3 5 20 10 36 10 38 2 95 40 158 105 26 27 52 47 57 44 5 -3 11 -1
15 5 6 9 35 15 35 6z m95 -44 c-3 -3 -11 0 -18 7 -9 10 -8 11 6 5 10 -3 15 -9
12 -12z m-37 -20 c2 -7 -2 -10 -12 -6 -9 3 -16 11 -16 16 0 13 23 5 28 -10z
m-978 -51 c-14 -26 -53 -29 -48 -3 2 9 13 18 26 20 12 2 22 9 23 15 0 9 2 9 5
0 3 -7 0 -21 -6 -32z m1130 -12 c0 -14 -9 -11 -41 12 -16 11 -27 25 -23 30 6
10 64 -27 64 -42z m-1061 17 c-7 -15 -17 -22 -26 -19 -11 5 -11 9 3 24 24 26
36 24 23 -5z m-159 -6 c-8 -5 -17 -7 -19 -4 -3 3 1 9 9 14 8 5 17 7 19 4 3 -3
-1 -9 -9 -14z m217 6 c0 -8 -6 -12 -14 -9 -7 3 -10 9 -7 14 8 14 21 11 21 -5z
m385 -16 c-5 -37 -22 -50 -22 -18 0 19 16 48 25 48 1 0 0 -14 -3 -30z m78 20
c0 -5 -2 -10 -4 -10 -3 0 -8 5 -11 10 -3 6 -1 10 4 10 6 0 11 -4 11 -10z m458
-10 c12 -12 22 -28 22 -36 0 -12 -6 -11 -30 6 -16 12 -30 28 -30 36 0 20 12
18 38 -6z m-639 -32 c-8 -14 -14 -18 -17 -10 -4 13 17 46 25 38 3 -2 -1 -15
-8 -28z m600 -9 c9 -15 8 -19 -3 -19 -15 0 -30 16 -39 42 -5 15 -3 16 12 6 10
-6 23 -19 30 -29z m-139 27 c0 -3 -4 -8 -10 -11 -5 -3 -10 -1 -10 4 0 6 5 11
10 11 6 0 10 -2 10 -4z m-721 -33 c-1 -17 -3 -21 -6 -10 -2 9 -10 17 -16 17
-7 0 -6 4 3 10 20 13 20 13 19 -17z m804 -3 c3 -11 2 -20 -3 -20 -14 0 -32 29
-25 40 9 14 21 5 28 -20z m-1098 11 c5 -9 -135 -141 -195 -184 -126 -91 -184
-116 -224 -101 -40 15 -15 38 110 104 54 29 144 83 199 120 117 80 103 72 110
61z m245 0 c0 -5 -8 -11 -18 -13 -12 -4 -17 -14 -16 -34 0 -16 -3 -39 -7 -51
-5 -15 -5 -23 2 -23 6 0 7 -4 4 -10 -3 -5 -8 -51 -10 -102 -2 -51 -6 -104 -9
-117 -5 -24 -32 -50 -53 -51 -6 0 -19 -3 -29 -7 -15 -5 -16 -2 -11 26 4 18 14
47 22 64 20 42 55 183 55 219 0 16 4 27 9 24 4 -3 7 6 5 20 -1 15 6 34 17 45
20 20 39 25 39 10z m370 5 c0 -2 -7 -6 -15 -10 -8 -3 -15 -1 -15 4 0 6 7 10
15 10 8 0 15 -2 15 -4z m354 -21 c-4 -8 -8 -15 -10 -15 -2 0 -4 7 -4 15 0 8 4
15 10 15 5 0 7 -7 4 -15z m-809 -32 c-3 -21 -8 -54 -11 -73 -11 -66 -77 -245
-100 -269 -27 -29 -76 -38 -67 -13 4 10 14 28 23 42 10 14 25 41 33 61 8 20
19 39 24 42 5 3 26 60 48 126 40 119 62 156 50 84z m895 1 c0 -26 -17 -33 -26
-9 -8 20 3 48 16 40 5 -3 10 -17 10 -31z m365 -15 c36 -21 67 -39 71 -39 3 0
35 -13 71 -30 35 -16 68 -30 73 -30 20 0 110 -54 107 -64 -2 -6 -24 -12 -49
-14 -37 -2 -60 5 -129 40 -81 42 -180 111 -187 129 -2 5 -17 16 -33 24 -33 18
-40 40 -9 30 11 -4 49 -24 85 -46z m-1385 36 c0 -2 -8 -12 -18 -22 -10 -10
-42 -47 -72 -83 -52 -63 -131 -143 -181 -186 -33 -27 -84 -37 -99 -20 -12 16
-14 15 141 121 56 39 129 98 162 133 59 60 67 67 67 57z m61 -80 c-32 -102
-94 -228 -134 -268 -34 -36 -69 -47 -82 -27 -6 10 25 68 50 94 19 18 94 137
140 220 21 38 40 65 42 59 3 -7 -5 -42 -16 -78z m829 59 c0 -8 -4 -12 -10 -9
-5 3 -10 13 -10 21 0 8 5 12 10 9 6 -3 10 -13 10 -21z m404 -21 c34 -26 66
-52 71 -58 19 -22 140 -94 185 -111 25 -9 68 -27 96 -41 44 -21 50 -27 46 -48
-4 -22 -10 -25 -47 -25 -26 0 -47 6 -56 16 -7 8 -25 22 -40 30 -57 29 -279
203 -287 225 -2 5 -10 9 -17 9 -13 0 -35 29 -35 44 0 16 30 1 84 -41z m-1073
2 c2 -32 6 -64 9 -67 1 -2 4 -48 7 -103 4 -92 3 -102 -16 -119 -20 -18 -20
-18 -28 10 -9 34 -9 240 1 278 8 33 26 34 27 1z m959 13 c0 -6 3 -9 6 -5 3 3
18 -6 32 -21 60 -60 289 -242 306 -242 3 0 21 -15 42 -34 l36 -33 -22 -16
c-15 -10 -30 -13 -44 -8 -11 5 -27 6 -34 4 -12 -5 -171 151 -243 238 -20 24
-51 60 -68 80 -33 39 -37 49 -21 49 6 0 10 -5 10 -12z m-856 -23 c18 -14 40
-25 48 -25 39 0 63 -71 26 -78 -12 -2 -15 2 -11 17 4 16 1 19 -16 14 -17 -4
-21 -1 -21 17 0 15 -5 20 -14 17 -9 -4 -17 2 -21 13 -4 13 -14 18 -32 16 -28
-3 -45 -26 -20 -26 21 0 26 -19 13 -47 -16 -33 -23 -28 -29 20 -4 42 13 87 34
87 6 0 25 -11 43 -25z m61 15 c-3 -5 -11 -10 -16 -10 -6 0 -7 5 -4 10 3 6 11
10 16 10 6 0 7 -4 4 -10z m470 0 c11 -17 -5 -31 -19 -17 -14 12 -12 27 4 27 5
0 12 -4 15 -10z m110 -40 c-5 -16 -10 -19 -18 -11 -18 18 -25 13 -22 -19 3
-33 -6 -38 -29 -14 -26 25 -18 42 29 67 34 18 50 9 40 -23z m175 33 c0 -5 15
-24 33 -44 17 -20 53 -61 79 -91 26 -30 79 -87 117 -128 54 -57 68 -77 59 -87
-6 -7 -20 -13 -32 -13 -32 0 -116 65 -116 89 0 6 -8 19 -18 29 -9 9 -30 40
-46 67 -16 28 -32 52 -36 55 -4 3 -15 21 -26 40 -10 19 -25 43 -33 53 -8 9
-10 17 -5 17 5 0 2 5 -6 10 -12 8 -11 10 8 10 12 0 22 -3 22 -7z m-30 -58 c22
-30 40 -58 40 -62 0 -4 12 -21 26 -38 14 -16 35 -47 47 -67 11 -21 23 -38 27
-38 9 0 55 -89 48 -95 -15 -16 -48 -12 -65 8 -37 42 -73 103 -99 167 -14 36
-34 81 -44 100 -21 42 -33 80 -26 80 3 0 24 -25 46 -55z m-1128 8 c-9 -21 -25
-47 -34 -57 -10 -11 -18 -24 -18 -28 0 -16 -101 -158 -123 -173 -26 -18 -38
-19 -61 -2 -20 15 -18 19 60 88 42 37 125 128 158 172 16 20 30 37 32 37 2 0
-4 -17 -14 -37z m1049 -88 c16 -89 18 -95 23 -104 9 -14 -21 -21 -32 -8 -14
18 -20 45 -27 119 -11 115 14 110 36 -7z m51 18 c17 -38 32 -70 33 -73 1 -3
14 -31 28 -63 32 -68 32 -67 9 -67 -20 0 -55 34 -66 64 -5 16 -46 194 -46 203
0 16 16 -9 42 -64z m-756 24 c10 -27 -29 -97 -55 -97 -17 0 -13 21 11 68 24
44 35 51 44 29z m80 -57 c29 0 64 -28 64 -51 0 -29 -18 -59 -36 -59 -12 0 -13
4 -3 21 6 13 7 25 2 30 -6 6 -15 -1 -23 -16 -8 -14 -22 -25 -34 -25 -13 0 -17
3 -9 8 14 9 36 63 28 70 -3 3 -20 -12 -39 -34 -27 -31 -36 -36 -41 -23 -3 8 3
37 15 64 19 45 21 47 39 31 9 -9 26 -16 37 -16z m548 15 c3 -8 5 -18 5 -21 0
-4 4 -10 9 -13 5 -3 6 -15 2 -25 -6 -17 -9 -15 -28 16 -12 19 -22 40 -22 47 0
16 27 13 34 -4z m-54 -123 c-15 -5 -40 17 -40 36 0 12 6 10 26 -9 14 -13 20
-25 14 -27z m-337 -59 c-7 -2 -21 -2 -30 0 -10 3 -4 5 12 5 17 0 24 -2 18 -5z
m127 -39 c0 -2 -9 -4 -21 -4 -11 0 -18 4 -14 10 5 8 35 3 35 -6z m-176 -2 c9
-14 19 -87 10 -79 -4 4 -9 17 -11 30 -2 12 -8 26 -13 31 -6 6 -10 14 -10 18 0
10 17 10 24 0z m46 -56 c0 -40 -11 -26 -17 21 -3 28 -1 34 6 23 6 -8 11 -28
11 -44z m27 32 c-3 -8 -6 -5 -6 6 -1 11 2 17 5 13 3 -3 4 -12 1 -19z m78 -48
c5 -17 4 -22 -3 -15 -5 6 -13 21 -17 35 -5 17 -4 22 3 15 5 -5 13 -21 17 -35z
m63 5 c-3 -3 -9 2 -12 12 -6 14 -5 15 5 6 7 -7 10 -15 7 -18z m251 -10 c38
-19 76 -41 84 -50 24 -23 12 -42 -23 -37 -27 4 -30 1 -30 -22 0 -39 -32 -33
-69 11 -37 45 -50 39 -20 -11 21 -36 21 -36 1 -36 -26 0 -59 41 -74 94 -7 22
-16 44 -21 47 -5 4 -3 10 3 14 8 5 18 1 26 -9 9 -13 13 -14 17 -4 3 9 17 1 43
-23 48 -45 86 -67 78 -45 -3 9 -13 18 -22 21 -10 2 -26 18 -37 35 -11 16 -23
30 -27 30 -5 0 -8 5 -8 10 0 15 4 13 79 -25z m-274 5 c3 -5 2 -10 -4 -10 -5 0
-13 5 -16 10 -3 6 -2 10 4 10 5 0 13 -4 16 -10z m114 -48 c6 -20 6 -32 0 -32
-11 0 -29 43 -29 68 0 24 19 2 29 -36z m-55 1 c8 -21 2 -26 -22 -19 -14 5 -18
13 -15 26 6 21 28 17 37 -7z m-128 2 c18 -14 17 -14 -13 -15 -23 0 -33 5 -33
15 0 19 21 19 46 0z m131 -152 c-11 -10 -26 8 -20 23 5 15 7 14 15 -1 6 -9 7
-19 5 -22z m-217 12 c0 -8 -4 -15 -10 -15 -5 0 -7 7 -4 15 4 8 8 15 10 15 2 0
4 -7 4 -15z m50 0 c0 -8 -4 -15 -10 -15 -5 0 -10 7 -10 15 0 8 5 15 10 15 6 0
10 -7 10 -15z m54 6 c3 -5 -1 -11 -9 -15 -9 -3 -15 0 -15 9 0 16 16 20 24 6z
m60 0 c3 -5 0 -11 -8 -14 -15 -6 -26 1 -26 15 0 11 27 10 34 -1z m106 -7 c0
-8 -4 -12 -10 -9 -5 3 -10 10 -10 16 0 5 5 9 10 9 6 0 10 -7 10 -16z m-310 -4
c0 -5 -7 -10 -16 -10 -8 0 -12 5 -9 10 3 6 10 10 16 10 5 0 9 -4 9 -10z m360
0 c0 -5 -2 -10 -4 -10 -3 0 -8 5 -11 10 -3 6 -1 10 4 10 6 0 11 -4 11 -10z
m-384 -77 c-13 -14 -25 9 -13 28 12 20 12 20 15 -1 2 -12 1 -24 -2 -27z m62
25 c-4 -27 -28 -36 -28 -10 0 20 8 32 22 32 5 0 8 -10 6 -22z m55 9 c3 -8 1
-20 -4 -28 -8 -12 -10 -12 -18 0 -10 15 -4 41 9 41 4 0 10 -6 13 -13z m57 -12
c0 -27 -24 -35 -34 -10 -3 8 -1 15 5 15 6 0 7 5 4 10 -3 6 1 10 9 10 10 0 16
-9 16 -25z m67 10 c1 -5 -2 -17 -7 -25 -8 -13 -11 -13 -26 2 -9 9 -13 21 -9
28 8 13 37 10 42 -5z m63 -4 c14 -28 13 -31 -15 -31 -20 0 -25 5 -25 25 0 30
25 34 40 6z m55 -2 c8 -25 1 -34 -20 -26 -19 8 -20 47 -1 47 8 0 18 -9 21 -21z
m-455 -10 c0 -11 -4 -18 -10 -14 -5 3 -7 12 -3 20 7 21 13 19 13 -6z m50 1
c-9 -17 -30 -28 -30 -16 0 16 15 36 26 36 12 0 12 -4 4 -20z m456 6 c9 -9 10
-17 4 -21 -14 -8 -30 3 -30 21 0 18 8 18 26 0z"/>
<path d="M2124 3868 c-8 -12 14 -28 39 -28 9 0 16 -6 15 -12 -2 -8 7 -13 20
-13 12 0 22 4 22 10 0 5 -8 10 -17 10 -9 0 -20 9 -23 20 -5 21 -46 30 -56 13z"/>
<path d="M2080 3840 c-12 -8 -12 -10 3 -16 22 -8 50 3 42 16 -8 12 -25 13 -45
0z"/>
<path d="M2273 3833 c-26 -10 -13 -25 17 -19 25 4 30 2 30 -13 0 -24 36 -34
55 -14 21 21 19 26 -10 21 -16 -3 -30 1 -41 13 -17 19 -28 22 -51 12z"/>
<path d="M2121 3801 c-11 -7 -10 -11 5 -19 23 -12 44 -5 44 14 0 16 -27 18
-49 5z"/>
<path d="M2218 3793 c-27 -7 -22 -23 7 -23 16 0 25 6 25 15 0 15 -2 16 -32 8z"/>
<path d="M2264 3775 c3 -8 -2 -19 -12 -24 -14 -8 -14 -12 -5 -22 10 -10 18 -8
38 11 32 30 32 50 -1 50 -19 0 -25 -4 -20 -15z"/>
<path d="M2070 3750 c0 -5 9 -10 20 -10 11 0 20 5 20 10 0 6 -9 10 -20 10 -11
0 -20 -4 -20 -10z"/>
<path d="M2171 3750 c-19 -11 5 -23 25 -12 14 8 14 10 2 15 -8 3 -21 2 -27 -3z"/>
<path d="M2340 3739 c0 -14 8 -33 18 -42 20 -19 62 -23 62 -7 0 6 -6 10 -12
10 -7 0 -25 14 -40 32 l-27 33 -1 -26z"/>
<path d="M2125 3710 c-19 -7 -19 -8 -2 -15 10 -4 23 -3 29 3 14 14 -3 21 -27
12z"/>
<path d="M2218 3703 c-21 -5 -24 -23 -4 -23 7 0 20 -10 28 -22 8 -12 19 -18
26 -14 19 12 14 26 -9 26 -17 0 -19 3 -10 13 6 8 8 17 4 20 -7 7 -8 7 -35 0z"/>
<path d="M2285 3701 c-3 -5 -1 -12 4 -15 12 -8 41 3 41 15 0 12 -37 12 -45 0z"/>
<path d="M2327 3671 c-17 -6 -17 -8 -3 -20 13 -11 18 -10 31 2 26 27 13 35
-28 18z"/>
<path d="M2133 3658 c2 -7 12 -13 22 -13 10 0 20 6 23 13 2 7 -6 12 -23 12
-17 0 -25 -5 -22 -12z"/>
<path d="M2270 3621 c0 -19 42 -23 58 -7 15 15 13 16 -21 16 -20 0 -37 -4 -37
-9z"/>
<path d="M2323 3585 c-7 -8 -9 -16 -5 -18 12 -8 54 12 47 23 -9 14 -28 12 -42
-5z"/>
<path d="M2337 3504 c-14 -14 -7 -25 13 -22 12 2 21 8 21 13 0 12 -24 18 -34
9z"/>
<path d="M3423 3213 c-17 -6 -16 -24 0 -47 17 -23 47 -11 47 19 0 23 -23 36
-47 28z"/>
<path d="M3357 3082 c-3 -4 3 -17 13 -30 l19 -22 15 21 c8 12 13 26 10 31 -6
10 -51 11 -57 0z"/>
<path d="M1190 2899 c0 -4 7 -9 15 -13 9 -3 15 0 15 8 0 7 -7 13 -15 13 -8 0
-15 -4 -15 -8z"/>
<path d="M953 2815 c0 -8 4 -15 9 -15 4 0 8 7 8 15 0 8 -4 15 -8 15 -5 0 -9
-7 -9 -15z"/>
<path d="M1170 2648 c0 -19 2 -20 10 -8 8 13 10 12 10 -3 0 -10 5 -15 10 -12
19 12 11 45 -10 45 -14 0 -20 -7 -20 -22z"/>
</g>
</svg>
